<mxfile host="Electron" modified="2023-05-27T17:37:28.512Z" agent="Mozilla/5.0 (Macintosh; Intel Mac OS X 10_15_7) AppleWebKit/537.36 (KHTML, like Gecko) draw.io/21.2.1 Chrome/112.0.5615.87 Electron/24.1.2 Safari/537.36" etag="r3mLVU26qnSMhAjW8EsH" version="21.2.1" type="device">
  <diagram name="Page-1" id="H1nZVYqxkzLZFgEqRADx">
    <mxGraphModel dx="-347" dy="3775" grid="1" gridSize="10" guides="1" tooltips="1" connect="1" arrows="1" fold="1" page="1" pageScale="1" pageWidth="850" pageHeight="1100" math="0" shadow="0">
      <root>
        <mxCell id="0" />
        <mxCell id="1" parent="0" />
        <mxCell id="AsBp8XiL8Dx4Y6rQVwFH-5323" value="R, W: 144, H: 135, ORDER: 16, GC: {65, 36, 43, 29, 7, 50, 70, 24, 14, 6, 4, 2, 10, 8, 42, 32} " style="text;html=1;strokeColor=none;fillColor=none;align=center;verticalAlign=middle;whiteSpace=wrap;rounded=0;fontSize=32;" parent="1" vertex="1">
          <mxGeometry x="3030" width="1440" height="30" as="geometry" />
        </mxCell>
        <mxCell id="AsBp8XiL8Dx4Y6rQVwFH-6689" value="R, W: 144, H: 115, ORDER: 17, GC: {57, 34, 21, 32, 13, 8, 5, 3, 2, 33, 23, 31, 58, 22, 14, 50, 36} " style="text;html=1;strokeColor=none;fillColor=none;align=center;verticalAlign=middle;whiteSpace=wrap;rounded=0;fontSize=32;" parent="1" vertex="1">
          <mxGeometry x="3050" y="1520" width="1440" height="30" as="geometry" />
        </mxCell>
        <mxCell id="AsBp8XiL8Dx4Y6rQVwFH-6725" value="R, W: 144, H: 93, ORDER: 17, GC: {41, 26, 32, 15, 11, 45, 5, 17, 10, 7, 3, 4, 12, 48, 52, 8, 44} " style="text;html=1;strokeColor=none;fillColor=none;align=center;verticalAlign=middle;whiteSpace=wrap;rounded=0;fontSize=32;" parent="1" vertex="1">
          <mxGeometry x="2910" y="2820" width="1440" height="30" as="geometry" />
        </mxCell>
        <mxCell id="AsBp8XiL8Dx4Y6rQVwFH-8769" value="R, W: 144, H: 60, ORDER: 18, GC: {60, 17, 19, 15, 2, 27, 13, 8, 21, 5, 16, 1, 4, 33, 3, 7, 23, 28} " style="text;html=1;strokeColor=none;fillColor=none;align=center;verticalAlign=middle;whiteSpace=wrap;rounded=0;fontSize=32;" parent="1" vertex="1">
          <mxGeometry x="2890" y="3940" width="1440" height="30" as="geometry" />
        </mxCell>
        <mxCell id="AsBp8XiL8Dx4Y6rQVwFH-9111" value="R, W: 144, H: 131, ORDER: 18, GC: {53, 28, 31, 25, 3, 15, 8, 9, 7, 1, 10, 18, 4, 14, 34, 32, 78, 66} " style="text;html=1;strokeColor=none;fillColor=none;align=center;verticalAlign=middle;whiteSpace=wrap;rounded=0;fontSize=32;" parent="1" vertex="1">
          <mxGeometry x="2920" y="6120" width="1440" height="30" as="geometry" />
        </mxCell>
        <mxCell id="AsBp8XiL8Dx4Y6rQVwFH-9567" value="R, W: 144, H: 84, ORDER: 18, GC: {84, 23, 16, 21, 7, 4, 5, 3, 1, 27, 33, 8, 19, 28, 13, 2, 17, 15} " style="text;html=1;strokeColor=none;fillColor=none;align=center;verticalAlign=middle;whiteSpace=wrap;rounded=0;fontSize=32;" parent="1" vertex="1">
          <mxGeometry x="2980" y="7600" width="1440" height="30" as="geometry" />
        </mxCell>
        <mxCell id="AsBp8XiL8Dx4Y6rQVwFH-12109" value="R, W: 144, H: 131, ORDER: 19, GC: {62, 36, 46, 26, 10, 16, 40, 69, 20, 15, 6, 9, 19, 1, 7, 4, 45, 11, 30} " style="text;html=1;strokeColor=none;fillColor=none;align=center;verticalAlign=middle;whiteSpace=wrap;rounded=0;fontSize=32;" parent="1" vertex="1">
          <mxGeometry x="2900" y="8680" width="1440" height="30" as="geometry" />
        </mxCell>
        <mxCell id="AsBp8XiL8Dx4Y6rQVwFH-12189" value="R, W: 144, H: 127, ORDER: 19, GC: {58, 36, 50, 22, 14, 19, 45, 69, 11, 30, 4, 9, 32, 28, 6, 1, 8, 7, 15} " style="text;html=1;strokeColor=none;fillColor=none;align=center;verticalAlign=middle;whiteSpace=wrap;rounded=0;fontSize=32;" parent="1" vertex="1">
          <mxGeometry x="2940" y="10240" width="1440" height="30" as="geometry" />
        </mxCell>
        <mxCell id="9KpWu18VyMETLlywFmQx-1486" value="R, W: 144, H: 133, ORDER: 19, GC: {63, 30, 23, 28, 7, 11, 5, 6, 27, 33, 4, 21, 8, 40, 70, 34, 2, 38, 36} " style="text;html=1;strokeColor=none;fillColor=none;align=center;verticalAlign=middle;whiteSpace=wrap;rounded=0;fontSize=32;" vertex="1" parent="1">
          <mxGeometry x="3120" y="11760" width="1440" height="30" as="geometry" />
        </mxCell>
        <mxCell id="9KpWu18VyMETLlywFmQx-1506" value="R, W: 144, H: 141, ORDER: 19, GC: {63, 20, 27, 11, 5, 4, 1, 3, 6, 34, 23, 7, 17, 15, 2, 41, 25, 78, 66} " style="text;html=1;strokeColor=none;fillColor=none;align=center;verticalAlign=middle;whiteSpace=wrap;rounded=0;fontSize=32;" vertex="1" parent="1">
          <mxGeometry x="3170" y="13380" width="1440" height="30" as="geometry" />
        </mxCell>
        <mxCell id="9KpWu18VyMETLlywFmQx-1526" value="R, W: 144, H: 101, ORDER: 19, GC: {48, 31, 29, 36, 21, 8, 12, 19, 5, 7, 1, 10, 9, 25, 4, 15, 53, 51, 40} " style="text;html=1;strokeColor=none;fillColor=none;align=center;verticalAlign=middle;whiteSpace=wrap;rounded=0;fontSize=32;" vertex="1" parent="1">
          <mxGeometry x="2960" y="15220" width="1440" height="30" as="geometry" />
        </mxCell>
        <mxCell id="9KpWu18VyMETLlywFmQx-1546" value="R, W: 144, H: 135, ORDER: 19, GC: {51, 22, 15, 23, 7, 8, 29, 14, 19, 9, 5, 4, 20, 28, 16, 36, 84, 24, 60} " style="text;html=1;strokeColor=none;fillColor=none;align=center;verticalAlign=middle;whiteSpace=wrap;rounded=0;fontSize=32;" vertex="1" parent="1">
          <mxGeometry x="2910" y="16440" width="1440" height="30" as="geometry" />
        </mxCell>
        <mxCell id="9KpWu18VyMETLlywFmQx-1566" value="R, W: 144, H: 117, ORDER: 19, GC: {39, 20, 21, 19, 1, 25, 18, 4, 16, 23, 9, 7, 2, 28, 14, 26, 78, 12, 66} " style="text;html=1;strokeColor=none;fillColor=none;align=center;verticalAlign=middle;whiteSpace=wrap;rounded=0;fontSize=32;" vertex="1" parent="1">
          <mxGeometry x="2910" y="17980" width="1440" height="30" as="geometry" />
        </mxCell>
        <mxCell id="9KpWu18VyMETLlywFmQx-1586" value="R, W: 144, H: 65, ORDER: 21, GC: {65, 15, 8, 9, 7, 1, 23, 10, 18, 4, 14, 24, 17, 6, 5, 19, 11, 32, 25, 3, 22} " style="text;html=1;strokeColor=none;fillColor=none;align=center;verticalAlign=middle;whiteSpace=wrap;rounded=0;fontSize=32;" vertex="1" parent="1">
          <mxGeometry x="2870" y="19380" width="1440" height="30" as="geometry" />
        </mxCell>
        <mxCell id="9KpWu18VyMETLlywFmQx-1608" value="R, W: 144, H: 117, ORDER: 21, GC: {53, 42, 49, 11, 31, 27, 22, 5, 17, 64, 18, 10, 3, 7, 16, 12, 8, 9, 26, 29, 25} " style="text;html=1;strokeColor=none;fillColor=none;align=center;verticalAlign=middle;whiteSpace=wrap;rounded=0;fontSize=32;" vertex="1" parent="1">
          <mxGeometry x="2930" y="20200" width="1440" height="30" as="geometry" />
        </mxCell>
        <mxCell id="9KpWu18VyMETLlywFmQx-1630" value="R, W: 144, H: 143, ORDER: 21, GC: {49, 40, 55, 9, 31, 26, 29, 38, 20, 18, 2, 33, 23, 3, 32, 56, 39, 17, 5, 27, 22} " style="text;html=1;strokeColor=none;fillColor=none;align=center;verticalAlign=middle;whiteSpace=wrap;rounded=0;fontSize=32;" vertex="1" parent="1">
          <mxGeometry x="2920" y="21560" width="1440" height="30" as="geometry" />
        </mxCell>
        <mxCell id="9KpWu18VyMETLlywFmQx-1652" value="R, W: 144, H: 79, ORDER: 21, GC: {79, 22, 19, 24, 3, 11, 5, 25, 6, 23, 17, 32, 14, 10, 9, 1, 8, 4, 7, 18, 15} " style="text;html=1;strokeColor=none;fillColor=none;align=center;verticalAlign=middle;whiteSpace=wrap;rounded=0;fontSize=32;" vertex="1" parent="1">
          <mxGeometry x="2910" y="23200" width="1440" height="30" as="geometry" />
        </mxCell>
        <mxCell id="9KpWu18VyMETLlywFmQx-1674" value="R, W: 144, H: 110, ORDER: 22, GC: {48, 34, 15, 17, 13, 2, 30, 11, 8, 3, 5, 27, 14, 20, 35, 62, 19, 1, 18, 10, 45, 37} " style="text;html=1;strokeColor=none;fillColor=none;align=center;verticalAlign=middle;whiteSpace=wrap;rounded=0;fontSize=32;" vertex="1" parent="1">
          <mxGeometry x="2910" y="24190" width="1440" height="30" as="geometry" />
        </mxCell>
        <mxCell id="9KpWu18VyMETLlywFmQx-1697" value="R, W: 144, H: 132, ORDER: 23, GC: {25, 12, 11, 27, 1, 10, 13, 4, 6, 40, 2, 24, 45, 3, 21, 38, 20, 46, 67, 31, 5, 41, 36} " style="text;html=1;strokeColor=none;fillColor=none;align=center;verticalAlign=middle;whiteSpace=wrap;rounded=0;fontSize=32;" vertex="1" parent="1">
          <mxGeometry x="2930" y="25490" width="1440" height="30" as="geometry" />
        </mxCell>
        <mxCell id="9KpWu18VyMETLlywFmQx-1721" value="R, W: 144, H: 135, ORDER: 23, GC: {38, 19, 33, 9, 10, 8, 1, 7, 4, 54, 16, 2, 13, 21, 40, 29, 36, 39, 57, 12, 45, 3, 42} " style="text;html=1;strokeColor=none;fillColor=none;align=center;verticalAlign=middle;whiteSpace=wrap;rounded=0;fontSize=32;" vertex="1" parent="1">
          <mxGeometry x="2960" y="27020" width="1440" height="30" as="geometry" />
        </mxCell>
        <mxCell id="9KpWu18VyMETLlywFmQx-1745" value="R, W: 144, H: 117, ORDER: 24, GC: {57, 30, 23, 14, 20, 9, 5, 4, 1, 3, 18, 7, 17, 15, 2, 31, 27, 10, 29, 60, 24, 12, 48, 36} " style="text;html=1;strokeColor=none;fillColor=none;align=center;verticalAlign=middle;whiteSpace=wrap;rounded=0;fontSize=32;" vertex="1" parent="1">
          <mxGeometry x="2940" y="28520" width="1440" height="30" as="geometry" />
        </mxCell>
        <mxCell id="9KpWu18VyMETLlywFmQx-1770" value="R, W: 144, H: 135, ORDER: 25, GC: {60, 45, 39, 6, 33, 15, 36, 9, 24, 75, 22, 12, 11, 3, 8, 10, 2, 5, 4, 20, 17, 1, 19, 32, 18} " style="text;html=1;strokeColor=none;fillColor=none;align=center;verticalAlign=middle;whiteSpace=wrap;rounded=0;fontSize=32;" vertex="1" parent="1">
          <mxGeometry x="2960" y="29920" width="1440" height="30" as="geometry" />
        </mxCell>
        <mxCell id="9KpWu18VyMETLlywFmQx-1796" value="R, W: 144, H: 113, ORDER: 25, GC: {53, 32, 28, 31, 15, 9, 4, 1, 14, 5, 6, 8, 16, 21, 11, 10, 22, 20, 2, 18, 60, 24, 12, 48, 36} " style="text;html=1;strokeColor=none;fillColor=none;align=center;verticalAlign=middle;whiteSpace=wrap;rounded=0;fontSize=32;" vertex="1" parent="1">
          <mxGeometry x="2960" y="31420" width="1440" height="30" as="geometry" />
        </mxCell>
        <mxCell id="9KpWu18VyMETLlywFmQx-1823" value="" style="group;flipV=1;" vertex="1" connectable="0" parent="1">
          <mxGeometry x="3030" y="50" width="1440" height="1350" as="geometry" />
        </mxCell>
        <mxCell id="761dnnyQ54j-Cl0NHfQN-5324" value="65" style="rounded=0;whiteSpace=wrap;html=1;fontSize=32;" parent="9KpWu18VyMETLlywFmQx-1823" vertex="1">
          <mxGeometry y="700" width="650" height="650" as="geometry" />
        </mxCell>
        <mxCell id="761dnnyQ54j-Cl0NHfQN-5325" value="36" style="rounded=0;whiteSpace=wrap;html=1;fontSize=32;" parent="9KpWu18VyMETLlywFmQx-1823" vertex="1">
          <mxGeometry x="650" y="990" width="360" height="360" as="geometry" />
        </mxCell>
        <mxCell id="761dnnyQ54j-Cl0NHfQN-5326" value="43" style="rounded=0;whiteSpace=wrap;html=1;fontSize=32;" parent="9KpWu18VyMETLlywFmQx-1823" vertex="1">
          <mxGeometry x="1010" y="920" width="430" height="430" as="geometry" />
        </mxCell>
        <mxCell id="761dnnyQ54j-Cl0NHfQN-5327" value="29" style="rounded=0;whiteSpace=wrap;html=1;fontSize=32;" parent="9KpWu18VyMETLlywFmQx-1823" vertex="1">
          <mxGeometry x="650" y="700" width="290" height="290" as="geometry" />
        </mxCell>
        <mxCell id="761dnnyQ54j-Cl0NHfQN-5328" value="7" style="rounded=0;whiteSpace=wrap;html=1;fontSize=32;" parent="9KpWu18VyMETLlywFmQx-1823" vertex="1">
          <mxGeometry x="940" y="920" width="70" height="70" as="geometry" />
        </mxCell>
        <mxCell id="761dnnyQ54j-Cl0NHfQN-5329" value="50" style="rounded=0;whiteSpace=wrap;html=1;fontSize=32;" parent="9KpWu18VyMETLlywFmQx-1823" vertex="1">
          <mxGeometry x="940" y="420" width="500" height="500" as="geometry" />
        </mxCell>
        <mxCell id="761dnnyQ54j-Cl0NHfQN-5330" value="70" style="rounded=0;whiteSpace=wrap;html=1;fontSize=32;" parent="9KpWu18VyMETLlywFmQx-1823" vertex="1">
          <mxGeometry width="700" height="700" as="geometry" />
        </mxCell>
        <mxCell id="761dnnyQ54j-Cl0NHfQN-5331" value="24" style="rounded=0;whiteSpace=wrap;html=1;fontSize=32;" parent="9KpWu18VyMETLlywFmQx-1823" vertex="1">
          <mxGeometry x="700" y="460" width="240" height="240" as="geometry" />
        </mxCell>
        <mxCell id="761dnnyQ54j-Cl0NHfQN-5332" value="14" style="rounded=0;whiteSpace=wrap;html=1;fontSize=32;" parent="9KpWu18VyMETLlywFmQx-1823" vertex="1">
          <mxGeometry x="700" y="320" width="140" height="140" as="geometry" />
        </mxCell>
        <mxCell id="761dnnyQ54j-Cl0NHfQN-5333" value="6" style="rounded=0;whiteSpace=wrap;html=1;fontSize=32;" parent="9KpWu18VyMETLlywFmQx-1823" vertex="1">
          <mxGeometry x="840" y="400" width="60" height="60" as="geometry" />
        </mxCell>
        <mxCell id="761dnnyQ54j-Cl0NHfQN-5334" value="4" style="rounded=0;whiteSpace=wrap;html=1;fontSize=32;" parent="9KpWu18VyMETLlywFmQx-1823" vertex="1">
          <mxGeometry x="900" y="420" width="40" height="40" as="geometry" />
        </mxCell>
        <mxCell id="761dnnyQ54j-Cl0NHfQN-5335" value="2" style="rounded=0;whiteSpace=wrap;html=1;fontSize=32;" parent="9KpWu18VyMETLlywFmQx-1823" vertex="1">
          <mxGeometry x="900" y="400" width="20" height="20" as="geometry" />
        </mxCell>
        <mxCell id="761dnnyQ54j-Cl0NHfQN-5336" value="10" style="rounded=0;whiteSpace=wrap;html=1;fontSize=32;" parent="9KpWu18VyMETLlywFmQx-1823" vertex="1">
          <mxGeometry x="920" y="320" width="100" height="100" as="geometry" />
        </mxCell>
        <mxCell id="761dnnyQ54j-Cl0NHfQN-5337" value="8" style="rounded=0;whiteSpace=wrap;html=1;fontSize=32;" parent="9KpWu18VyMETLlywFmQx-1823" vertex="1">
          <mxGeometry x="840" y="320" width="80" height="80" as="geometry" />
        </mxCell>
        <mxCell id="761dnnyQ54j-Cl0NHfQN-5338" value="42" style="rounded=0;whiteSpace=wrap;html=1;fontSize=32;" parent="9KpWu18VyMETLlywFmQx-1823" vertex="1">
          <mxGeometry x="1020" width="420" height="420" as="geometry" />
        </mxCell>
        <mxCell id="761dnnyQ54j-Cl0NHfQN-5339" value="32" style="rounded=0;whiteSpace=wrap;html=1;fontSize=32;" parent="9KpWu18VyMETLlywFmQx-1823" vertex="1">
          <mxGeometry x="700" width="320" height="320" as="geometry" />
        </mxCell>
        <mxCell id="9KpWu18VyMETLlywFmQx-1824" value="" style="group;flipV=1;" vertex="1" connectable="0" parent="1">
          <mxGeometry x="3050" y="1570" width="1440" height="1150" as="geometry" />
        </mxCell>
        <mxCell id="761dnnyQ54j-Cl0NHfQN-6690" value="57" style="rounded=0;whiteSpace=wrap;html=1;fontSize=32;" parent="9KpWu18VyMETLlywFmQx-1824" vertex="1">
          <mxGeometry y="580" width="570" height="570" as="geometry" />
        </mxCell>
        <mxCell id="761dnnyQ54j-Cl0NHfQN-6691" value="34" style="rounded=0;whiteSpace=wrap;html=1;fontSize=32;" parent="9KpWu18VyMETLlywFmQx-1824" vertex="1">
          <mxGeometry x="570" y="810" width="340" height="340" as="geometry" />
        </mxCell>
        <mxCell id="761dnnyQ54j-Cl0NHfQN-6692" value="21" style="rounded=0;whiteSpace=wrap;html=1;fontSize=32;" parent="9KpWu18VyMETLlywFmQx-1824" vertex="1">
          <mxGeometry x="910" y="940" width="210" height="210" as="geometry" />
        </mxCell>
        <mxCell id="761dnnyQ54j-Cl0NHfQN-6693" value="32" style="rounded=0;whiteSpace=wrap;html=1;fontSize=32;" parent="9KpWu18VyMETLlywFmQx-1824" vertex="1">
          <mxGeometry x="1120" y="830" width="320" height="320" as="geometry" />
        </mxCell>
        <mxCell id="761dnnyQ54j-Cl0NHfQN-6694" value="13" style="rounded=0;whiteSpace=wrap;html=1;fontSize=32;" parent="9KpWu18VyMETLlywFmQx-1824" vertex="1">
          <mxGeometry x="910" y="810" width="130" height="130" as="geometry" />
        </mxCell>
        <mxCell id="761dnnyQ54j-Cl0NHfQN-6695" value="8" style="rounded=0;whiteSpace=wrap;html=1;fontSize=32;" parent="9KpWu18VyMETLlywFmQx-1824" vertex="1">
          <mxGeometry x="1040" y="860" width="80" height="80" as="geometry" />
        </mxCell>
        <mxCell id="761dnnyQ54j-Cl0NHfQN-6696" value="5" style="rounded=0;whiteSpace=wrap;html=1;fontSize=32;" parent="9KpWu18VyMETLlywFmQx-1824" vertex="1">
          <mxGeometry x="1040" y="810" width="50" height="50" as="geometry" />
        </mxCell>
        <mxCell id="761dnnyQ54j-Cl0NHfQN-6697" value="3" style="rounded=0;whiteSpace=wrap;html=1;fontSize=32;" parent="9KpWu18VyMETLlywFmQx-1824" vertex="1">
          <mxGeometry x="1090" y="830" width="30" height="30" as="geometry" />
        </mxCell>
        <mxCell id="761dnnyQ54j-Cl0NHfQN-6698" value="2" style="rounded=0;whiteSpace=wrap;html=1;fontSize=32;" parent="9KpWu18VyMETLlywFmQx-1824" vertex="1">
          <mxGeometry x="1090" y="810" width="20" height="20" as="geometry" />
        </mxCell>
        <mxCell id="761dnnyQ54j-Cl0NHfQN-6699" value="33" style="rounded=0;whiteSpace=wrap;html=1;fontSize=32;" parent="9KpWu18VyMETLlywFmQx-1824" vertex="1">
          <mxGeometry x="1110" y="500" width="330" height="330" as="geometry" />
        </mxCell>
        <mxCell id="761dnnyQ54j-Cl0NHfQN-6700" value="23" style="rounded=0;whiteSpace=wrap;html=1;fontSize=32;" parent="9KpWu18VyMETLlywFmQx-1824" vertex="1">
          <mxGeometry x="570" y="580" width="230" height="230" as="geometry" />
        </mxCell>
        <mxCell id="761dnnyQ54j-Cl0NHfQN-6701" value="31" style="rounded=0;whiteSpace=wrap;html=1;fontSize=32;" parent="9KpWu18VyMETLlywFmQx-1824" vertex="1">
          <mxGeometry x="800" y="500" width="310" height="310" as="geometry" />
        </mxCell>
        <mxCell id="761dnnyQ54j-Cl0NHfQN-6702" value="58" style="rounded=0;whiteSpace=wrap;html=1;fontSize=32;" parent="9KpWu18VyMETLlywFmQx-1824" vertex="1">
          <mxGeometry width="580" height="580" as="geometry" />
        </mxCell>
        <mxCell id="761dnnyQ54j-Cl0NHfQN-6703" value="22" style="rounded=0;whiteSpace=wrap;html=1;fontSize=32;" parent="9KpWu18VyMETLlywFmQx-1824" vertex="1">
          <mxGeometry x="580" y="360" width="220" height="220" as="geometry" />
        </mxCell>
        <mxCell id="761dnnyQ54j-Cl0NHfQN-6704" value="14" style="rounded=0;whiteSpace=wrap;html=1;fontSize=32;" parent="9KpWu18VyMETLlywFmQx-1824" vertex="1">
          <mxGeometry x="800" y="360" width="140" height="140" as="geometry" />
        </mxCell>
        <mxCell id="761dnnyQ54j-Cl0NHfQN-6705" value="50" style="rounded=0;whiteSpace=wrap;html=1;fontSize=32;" parent="9KpWu18VyMETLlywFmQx-1824" vertex="1">
          <mxGeometry x="940" width="500" height="500" as="geometry" />
        </mxCell>
        <mxCell id="761dnnyQ54j-Cl0NHfQN-6706" value="36" style="rounded=0;whiteSpace=wrap;html=1;fontSize=32;" parent="9KpWu18VyMETLlywFmQx-1824" vertex="1">
          <mxGeometry x="580" width="360" height="360" as="geometry" />
        </mxCell>
        <mxCell id="9KpWu18VyMETLlywFmQx-1825" value="" style="group;flipV=1;" vertex="1" connectable="0" parent="1">
          <mxGeometry x="2910" y="2870" width="1440" height="930" as="geometry" />
        </mxCell>
        <mxCell id="761dnnyQ54j-Cl0NHfQN-6726" value="41" style="rounded=0;whiteSpace=wrap;html=1;fontSize=32;" parent="9KpWu18VyMETLlywFmQx-1825" vertex="1">
          <mxGeometry y="520" width="410" height="410" as="geometry" />
        </mxCell>
        <mxCell id="761dnnyQ54j-Cl0NHfQN-6727" value="26" style="rounded=0;whiteSpace=wrap;html=1;fontSize=32;" parent="9KpWu18VyMETLlywFmQx-1825" vertex="1">
          <mxGeometry x="410" y="670" width="260" height="260" as="geometry" />
        </mxCell>
        <mxCell id="761dnnyQ54j-Cl0NHfQN-6728" value="32" style="rounded=0;whiteSpace=wrap;html=1;fontSize=32;" parent="9KpWu18VyMETLlywFmQx-1825" vertex="1">
          <mxGeometry x="670" y="610" width="320" height="320" as="geometry" />
        </mxCell>
        <mxCell id="761dnnyQ54j-Cl0NHfQN-6729" value="15" style="rounded=0;whiteSpace=wrap;html=1;fontSize=32;" parent="9KpWu18VyMETLlywFmQx-1825" vertex="1">
          <mxGeometry x="410" y="520" width="150" height="150" as="geometry" />
        </mxCell>
        <mxCell id="761dnnyQ54j-Cl0NHfQN-6730" value="11" style="rounded=0;whiteSpace=wrap;html=1;fontSize=32;" parent="9KpWu18VyMETLlywFmQx-1825" vertex="1">
          <mxGeometry x="560" y="560" width="110" height="110" as="geometry" />
        </mxCell>
        <mxCell id="761dnnyQ54j-Cl0NHfQN-6731" value="45" style="rounded=0;whiteSpace=wrap;html=1;fontSize=32;" parent="9KpWu18VyMETLlywFmQx-1825" vertex="1">
          <mxGeometry x="990" y="480" width="450" height="450" as="geometry" />
        </mxCell>
        <mxCell id="761dnnyQ54j-Cl0NHfQN-6732" value="5" style="rounded=0;whiteSpace=wrap;html=1;fontSize=32;" parent="9KpWu18VyMETLlywFmQx-1825" vertex="1">
          <mxGeometry x="670" y="560" width="50" height="50" as="geometry" />
        </mxCell>
        <mxCell id="761dnnyQ54j-Cl0NHfQN-6733" value="17" style="rounded=0;whiteSpace=wrap;html=1;fontSize=32;" parent="9KpWu18VyMETLlywFmQx-1825" vertex="1">
          <mxGeometry x="720" y="440" width="170" height="170" as="geometry" />
        </mxCell>
        <mxCell id="761dnnyQ54j-Cl0NHfQN-6734" value="10" style="rounded=0;whiteSpace=wrap;html=1;fontSize=32;" parent="9KpWu18VyMETLlywFmQx-1825" vertex="1">
          <mxGeometry x="890" y="510" width="100" height="100" as="geometry" />
        </mxCell>
        <mxCell id="761dnnyQ54j-Cl0NHfQN-6735" value="7" style="rounded=0;whiteSpace=wrap;html=1;fontSize=32;" parent="9KpWu18VyMETLlywFmQx-1825" vertex="1">
          <mxGeometry x="890" y="440" width="70" height="70" as="geometry" />
        </mxCell>
        <mxCell id="761dnnyQ54j-Cl0NHfQN-6736" value="3" style="rounded=0;whiteSpace=wrap;html=1;fontSize=32;" parent="9KpWu18VyMETLlywFmQx-1825" vertex="1">
          <mxGeometry x="960" y="480" width="30" height="30" as="geometry" />
        </mxCell>
        <mxCell id="761dnnyQ54j-Cl0NHfQN-6737" value="4" style="rounded=0;whiteSpace=wrap;html=1;fontSize=32;" parent="9KpWu18VyMETLlywFmQx-1825" vertex="1">
          <mxGeometry x="560" y="520" width="40" height="40" as="geometry" />
        </mxCell>
        <mxCell id="761dnnyQ54j-Cl0NHfQN-6738" value="12" style="rounded=0;whiteSpace=wrap;html=1;fontSize=32;" parent="9KpWu18VyMETLlywFmQx-1825" vertex="1">
          <mxGeometry x="600" y="440" width="120" height="120" as="geometry" />
        </mxCell>
        <mxCell id="761dnnyQ54j-Cl0NHfQN-6739" value="48" style="rounded=0;whiteSpace=wrap;html=1;fontSize=32;" parent="9KpWu18VyMETLlywFmQx-1825" vertex="1">
          <mxGeometry x="960" width="480" height="480" as="geometry" />
        </mxCell>
        <mxCell id="761dnnyQ54j-Cl0NHfQN-6740" value="52" style="rounded=0;whiteSpace=wrap;html=1;fontSize=32;" parent="9KpWu18VyMETLlywFmQx-1825" vertex="1">
          <mxGeometry width="520" height="520" as="geometry" />
        </mxCell>
        <mxCell id="761dnnyQ54j-Cl0NHfQN-6741" value="8" style="rounded=0;whiteSpace=wrap;html=1;fontSize=32;" parent="9KpWu18VyMETLlywFmQx-1825" vertex="1">
          <mxGeometry x="520" y="440" width="80" height="80" as="geometry" />
        </mxCell>
        <mxCell id="761dnnyQ54j-Cl0NHfQN-6742" value="44" style="rounded=0;whiteSpace=wrap;html=1;fontSize=32;" parent="9KpWu18VyMETLlywFmQx-1825" vertex="1">
          <mxGeometry x="520" width="440" height="440" as="geometry" />
        </mxCell>
        <mxCell id="9KpWu18VyMETLlywFmQx-1826" value="" style="group;flipV=1;" vertex="1" connectable="0" parent="1">
          <mxGeometry x="2890" y="3990" width="1440" height="600" as="geometry" />
        </mxCell>
        <mxCell id="761dnnyQ54j-Cl0NHfQN-8770" value="60" style="rounded=0;whiteSpace=wrap;html=1;fontSize=32;" parent="9KpWu18VyMETLlywFmQx-1826" vertex="1">
          <mxGeometry width="600" height="600" as="geometry" />
        </mxCell>
        <mxCell id="761dnnyQ54j-Cl0NHfQN-8771" value="17" style="rounded=0;whiteSpace=wrap;html=1;fontSize=32;fillColor=#f5f5f5;fontColor=#333333;strokeColor=#666666;" parent="9KpWu18VyMETLlywFmQx-1826" vertex="1">
          <mxGeometry x="600" y="430" width="170" height="170" as="geometry" />
        </mxCell>
        <mxCell id="761dnnyQ54j-Cl0NHfQN-8772" value="19" style="rounded=0;whiteSpace=wrap;html=1;fontSize=32;fillColor=#f5f5f5;fontColor=#333333;strokeColor=#666666;" parent="9KpWu18VyMETLlywFmQx-1826" vertex="1">
          <mxGeometry x="770" y="410" width="190" height="190" as="geometry" />
        </mxCell>
        <mxCell id="761dnnyQ54j-Cl0NHfQN-8773" value="15" style="rounded=0;whiteSpace=wrap;html=1;fontSize=32;fillColor=#f5f5f5;fontColor=#333333;strokeColor=#666666;" parent="9KpWu18VyMETLlywFmQx-1826" vertex="1">
          <mxGeometry x="600" y="280" width="150" height="150" as="geometry" />
        </mxCell>
        <mxCell id="761dnnyQ54j-Cl0NHfQN-8774" value="2" style="rounded=0;whiteSpace=wrap;html=1;fontSize=32;fillColor=#f5f5f5;fontColor=#333333;strokeColor=#666666;" parent="9KpWu18VyMETLlywFmQx-1826" vertex="1">
          <mxGeometry x="750" y="410" width="20" height="20" as="geometry" />
        </mxCell>
        <mxCell id="761dnnyQ54j-Cl0NHfQN-8775" value="27" style="rounded=0;whiteSpace=wrap;html=1;fontSize=32;fillColor=#f5f5f5;fontColor=#333333;strokeColor=#666666;" parent="9KpWu18VyMETLlywFmQx-1826" vertex="1">
          <mxGeometry x="960" y="330" width="270" height="270" as="geometry" />
        </mxCell>
        <mxCell id="761dnnyQ54j-Cl0NHfQN-8776" value="13" style="rounded=0;whiteSpace=wrap;html=1;fontSize=32;fillColor=#f5f5f5;fontColor=#333333;strokeColor=#666666;" parent="9KpWu18VyMETLlywFmQx-1826" vertex="1">
          <mxGeometry x="750" y="280" width="130" height="130" as="geometry" />
        </mxCell>
        <mxCell id="761dnnyQ54j-Cl0NHfQN-8777" value="8" style="rounded=0;whiteSpace=wrap;html=1;fontSize=32;fillColor=#f5f5f5;fontColor=#333333;strokeColor=#666666;" parent="9KpWu18VyMETLlywFmQx-1826" vertex="1">
          <mxGeometry x="880" y="330" width="80" height="80" as="geometry" />
        </mxCell>
        <mxCell id="761dnnyQ54j-Cl0NHfQN-8778" value="21" style="rounded=0;whiteSpace=wrap;html=1;fontSize=32;fillColor=#f5f5f5;fontColor=#333333;strokeColor=#666666;" parent="9KpWu18VyMETLlywFmQx-1826" vertex="1">
          <mxGeometry x="1230" y="390" width="210" height="210" as="geometry" />
        </mxCell>
        <mxCell id="761dnnyQ54j-Cl0NHfQN-8779" value="5" style="rounded=0;whiteSpace=wrap;html=1;fontSize=32;fillColor=#f5f5f5;fontColor=#333333;strokeColor=#666666;" parent="9KpWu18VyMETLlywFmQx-1826" vertex="1">
          <mxGeometry x="1230" y="340" width="50" height="50" as="geometry" />
        </mxCell>
        <mxCell id="761dnnyQ54j-Cl0NHfQN-8780" value="16" style="rounded=0;whiteSpace=wrap;html=1;fontSize=32;fillColor=#f5f5f5;fontColor=#333333;strokeColor=#666666;" parent="9KpWu18VyMETLlywFmQx-1826" vertex="1">
          <mxGeometry x="1280" y="230" width="160" height="160" as="geometry" />
        </mxCell>
        <mxCell id="761dnnyQ54j-Cl0NHfQN-8781" value="1" style="rounded=0;whiteSpace=wrap;html=1;fontSize=32;fillColor=#f5f5f5;fontColor=#333333;strokeColor=#666666;" parent="9KpWu18VyMETLlywFmQx-1826" vertex="1">
          <mxGeometry x="1230" y="330" width="10" height="10" as="geometry" />
        </mxCell>
        <mxCell id="761dnnyQ54j-Cl0NHfQN-8782" value="4" style="rounded=0;whiteSpace=wrap;html=1;fontSize=32;fillColor=#f5f5f5;fontColor=#333333;strokeColor=#666666;" parent="9KpWu18VyMETLlywFmQx-1826" vertex="1">
          <mxGeometry x="1240" y="300" width="40" height="40" as="geometry" />
        </mxCell>
        <mxCell id="761dnnyQ54j-Cl0NHfQN-8783" value="33" style="rounded=0;whiteSpace=wrap;html=1;fontSize=32;fillColor=#f5f5f5;fontColor=#333333;strokeColor=#666666;" parent="9KpWu18VyMETLlywFmQx-1826" vertex="1">
          <mxGeometry x="880" width="330" height="330" as="geometry" />
        </mxCell>
        <mxCell id="761dnnyQ54j-Cl0NHfQN-8784" value="3" style="rounded=0;whiteSpace=wrap;html=1;fontSize=32;fillColor=#f5f5f5;fontColor=#333333;strokeColor=#666666;" parent="9KpWu18VyMETLlywFmQx-1826" vertex="1">
          <mxGeometry x="1210" y="300" width="30" height="30" as="geometry" />
        </mxCell>
        <mxCell id="761dnnyQ54j-Cl0NHfQN-8785" value="7" style="rounded=0;whiteSpace=wrap;html=1;fontSize=32;fillColor=#f5f5f5;fontColor=#333333;strokeColor=#666666;" parent="9KpWu18VyMETLlywFmQx-1826" vertex="1">
          <mxGeometry x="1210" y="230" width="70" height="70" as="geometry" />
        </mxCell>
        <mxCell id="761dnnyQ54j-Cl0NHfQN-8786" value="23" style="rounded=0;whiteSpace=wrap;html=1;fontSize=32;fillColor=#f5f5f5;fontColor=#333333;strokeColor=#666666;" parent="9KpWu18VyMETLlywFmQx-1826" vertex="1">
          <mxGeometry x="1210" width="230" height="230" as="geometry" />
        </mxCell>
        <mxCell id="761dnnyQ54j-Cl0NHfQN-8787" value="28" style="rounded=0;whiteSpace=wrap;html=1;fontSize=32;fillColor=#f5f5f5;fontColor=#333333;strokeColor=#666666;" parent="9KpWu18VyMETLlywFmQx-1826" vertex="1">
          <mxGeometry x="600" width="280" height="280" as="geometry" />
        </mxCell>
        <mxCell id="9KpWu18VyMETLlywFmQx-1829" value="" style="group;flipV=1;" vertex="1" connectable="0" parent="1">
          <mxGeometry x="2920" y="6170" width="1440" height="1310" as="geometry" />
        </mxCell>
        <mxCell id="761dnnyQ54j-Cl0NHfQN-9112" value="53" style="rounded=0;whiteSpace=wrap;html=1;fontSize=32;" parent="9KpWu18VyMETLlywFmQx-1829" vertex="1">
          <mxGeometry y="780" width="530" height="530" as="geometry" />
        </mxCell>
        <mxCell id="761dnnyQ54j-Cl0NHfQN-9113" value="28" style="rounded=0;whiteSpace=wrap;html=1;fontSize=32;" parent="9KpWu18VyMETLlywFmQx-1829" vertex="1">
          <mxGeometry x="530" y="1030" width="280" height="280" as="geometry" />
        </mxCell>
        <mxCell id="761dnnyQ54j-Cl0NHfQN-9114" value="31" style="rounded=0;whiteSpace=wrap;html=1;fontSize=32;" parent="9KpWu18VyMETLlywFmQx-1829" vertex="1">
          <mxGeometry x="810" y="1000" width="310" height="310" as="geometry" />
        </mxCell>
        <mxCell id="761dnnyQ54j-Cl0NHfQN-9115" value="25" style="rounded=0;whiteSpace=wrap;html=1;fontSize=32;" parent="9KpWu18VyMETLlywFmQx-1829" vertex="1">
          <mxGeometry x="530" y="780" width="250" height="250" as="geometry" />
        </mxCell>
        <mxCell id="761dnnyQ54j-Cl0NHfQN-9116" value="3" style="rounded=0;whiteSpace=wrap;html=1;fontSize=32;" parent="9KpWu18VyMETLlywFmQx-1829" vertex="1">
          <mxGeometry x="780" y="1000" width="30" height="30" as="geometry" />
        </mxCell>
        <mxCell id="761dnnyQ54j-Cl0NHfQN-9117" value="15" style="rounded=0;whiteSpace=wrap;html=1;fontSize=32;fillColor=#CCCCCC;fontColor=#333333;strokeColor=#666666;" parent="9KpWu18VyMETLlywFmQx-1829" vertex="1">
          <mxGeometry x="1120" y="1160" width="150" height="150" as="geometry" />
        </mxCell>
        <mxCell id="761dnnyQ54j-Cl0NHfQN-9118" value="8" style="rounded=0;whiteSpace=wrap;html=1;fontSize=32;fillColor=#CCCCCC;fontColor=#333333;strokeColor=#666666;" parent="9KpWu18VyMETLlywFmQx-1829" vertex="1">
          <mxGeometry x="1270" y="1230" width="80" height="80" as="geometry" />
        </mxCell>
        <mxCell id="761dnnyQ54j-Cl0NHfQN-9119" value="9" style="rounded=0;whiteSpace=wrap;html=1;fontSize=32;fillColor=#CCCCCC;fontColor=#333333;strokeColor=#666666;" parent="9KpWu18VyMETLlywFmQx-1829" vertex="1">
          <mxGeometry x="1350" y="1220" width="90" height="90" as="geometry" />
        </mxCell>
        <mxCell id="761dnnyQ54j-Cl0NHfQN-9120" value="7" style="rounded=0;whiteSpace=wrap;html=1;fontSize=32;fillColor=#CCCCCC;fontColor=#333333;strokeColor=#666666;" parent="9KpWu18VyMETLlywFmQx-1829" vertex="1">
          <mxGeometry x="1270" y="1160" width="70" height="70" as="geometry" />
        </mxCell>
        <mxCell id="761dnnyQ54j-Cl0NHfQN-9121" value="1" style="rounded=0;whiteSpace=wrap;html=1;fontSize=32;fillColor=#CCCCCC;fontColor=#333333;strokeColor=#666666;" parent="9KpWu18VyMETLlywFmQx-1829" vertex="1">
          <mxGeometry x="1340" y="1220" width="10" height="10" as="geometry" />
        </mxCell>
        <mxCell id="761dnnyQ54j-Cl0NHfQN-9122" value="10" style="rounded=0;whiteSpace=wrap;html=1;fontSize=32;fillColor=#CCCCCC;fontColor=#333333;strokeColor=#666666;" parent="9KpWu18VyMETLlywFmQx-1829" vertex="1">
          <mxGeometry x="1340" y="1120" width="100" height="100" as="geometry" />
        </mxCell>
        <mxCell id="761dnnyQ54j-Cl0NHfQN-9123" value="18" style="rounded=0;whiteSpace=wrap;html=1;fontSize=32;fillColor=#CCCCCC;fontColor=#333333;strokeColor=#666666;" parent="9KpWu18VyMETLlywFmQx-1829" vertex="1">
          <mxGeometry x="1120" y="980" width="180" height="180" as="geometry" />
        </mxCell>
        <mxCell id="761dnnyQ54j-Cl0NHfQN-9124" value="4" style="rounded=0;whiteSpace=wrap;html=1;fontSize=32;fillColor=#CCCCCC;fontColor=#333333;strokeColor=#666666;" parent="9KpWu18VyMETLlywFmQx-1829" vertex="1">
          <mxGeometry x="1300" y="1120" width="40" height="40" as="geometry" />
        </mxCell>
        <mxCell id="761dnnyQ54j-Cl0NHfQN-9125" value="14" style="rounded=0;whiteSpace=wrap;html=1;fontSize=32;fillColor=#CCCCCC;fontColor=#333333;strokeColor=#666666;" parent="9KpWu18VyMETLlywFmQx-1829" vertex="1">
          <mxGeometry x="1300" y="980" width="140" height="140" as="geometry" />
        </mxCell>
        <mxCell id="761dnnyQ54j-Cl0NHfQN-9126" value="34" style="rounded=0;whiteSpace=wrap;html=1;fontSize=32;" parent="9KpWu18VyMETLlywFmQx-1829" vertex="1">
          <mxGeometry x="780" y="660" width="340" height="340" as="geometry" />
        </mxCell>
        <mxCell id="761dnnyQ54j-Cl0NHfQN-9127" value="32" style="rounded=0;whiteSpace=wrap;html=1;fontSize=32;fillColor=#f5f5f5;fontColor=#333333;strokeColor=#666666;" parent="9KpWu18VyMETLlywFmQx-1829" vertex="1">
          <mxGeometry x="1120" y="660" width="320" height="320" as="geometry" />
        </mxCell>
        <mxCell id="761dnnyQ54j-Cl0NHfQN-9128" value="78" style="rounded=0;whiteSpace=wrap;html=1;fontSize=32;" parent="9KpWu18VyMETLlywFmQx-1829" vertex="1">
          <mxGeometry width="780" height="780" as="geometry" />
        </mxCell>
        <mxCell id="761dnnyQ54j-Cl0NHfQN-9129" value="66" style="rounded=0;whiteSpace=wrap;html=1;fontSize=32;" parent="9KpWu18VyMETLlywFmQx-1829" vertex="1">
          <mxGeometry x="780" width="660" height="660" as="geometry" />
        </mxCell>
        <mxCell id="9KpWu18VyMETLlywFmQx-1830" value="" style="group;flipV=1;" vertex="1" connectable="0" parent="1">
          <mxGeometry x="2980" y="7650" width="1440" height="840" as="geometry" />
        </mxCell>
        <mxCell id="761dnnyQ54j-Cl0NHfQN-9568" value="84" style="rounded=0;whiteSpace=wrap;html=1;fontSize=32;" parent="9KpWu18VyMETLlywFmQx-1830" vertex="1">
          <mxGeometry width="840" height="840" as="geometry" />
        </mxCell>
        <mxCell id="761dnnyQ54j-Cl0NHfQN-9569" value="23" style="rounded=0;whiteSpace=wrap;html=1;fontSize=32;fillColor=#f5f5f5;fontColor=#333333;strokeColor=#666666;" parent="9KpWu18VyMETLlywFmQx-1830" vertex="1">
          <mxGeometry x="840" y="610" width="230" height="230" as="geometry" />
        </mxCell>
        <mxCell id="761dnnyQ54j-Cl0NHfQN-9570" value="16" style="rounded=0;whiteSpace=wrap;html=1;fontSize=32;fillColor=#f5f5f5;fontColor=#333333;strokeColor=#666666;" parent="9KpWu18VyMETLlywFmQx-1830" vertex="1">
          <mxGeometry x="1070" y="680" width="160" height="160" as="geometry" />
        </mxCell>
        <mxCell id="761dnnyQ54j-Cl0NHfQN-9571" value="21" style="rounded=0;whiteSpace=wrap;html=1;fontSize=32;fillColor=#f5f5f5;fontColor=#333333;strokeColor=#666666;" parent="9KpWu18VyMETLlywFmQx-1830" vertex="1">
          <mxGeometry x="1230" y="630" width="210" height="210" as="geometry" />
        </mxCell>
        <mxCell id="761dnnyQ54j-Cl0NHfQN-9572" value="7" style="rounded=0;whiteSpace=wrap;html=1;fontSize=32;fillColor=#f5f5f5;fontColor=#333333;strokeColor=#666666;" parent="9KpWu18VyMETLlywFmQx-1830" vertex="1">
          <mxGeometry x="1070" y="610" width="70" height="70" as="geometry" />
        </mxCell>
        <mxCell id="761dnnyQ54j-Cl0NHfQN-9573" value="4" style="rounded=0;whiteSpace=wrap;html=1;fontSize=32;fillColor=#f5f5f5;fontColor=#333333;strokeColor=#666666;" parent="9KpWu18VyMETLlywFmQx-1830" vertex="1">
          <mxGeometry x="1140" y="640" width="40" height="40" as="geometry" />
        </mxCell>
        <mxCell id="761dnnyQ54j-Cl0NHfQN-9574" value="5" style="rounded=0;whiteSpace=wrap;html=1;fontSize=32;fillColor=#f5f5f5;fontColor=#333333;strokeColor=#666666;" parent="9KpWu18VyMETLlywFmQx-1830" vertex="1">
          <mxGeometry x="1180" y="630" width="50" height="50" as="geometry" />
        </mxCell>
        <mxCell id="761dnnyQ54j-Cl0NHfQN-9575" value="3" style="rounded=0;whiteSpace=wrap;html=1;fontSize=32;fillColor=#f5f5f5;fontColor=#333333;strokeColor=#666666;" parent="9KpWu18VyMETLlywFmQx-1830" vertex="1">
          <mxGeometry x="1140" y="610" width="30" height="30" as="geometry" />
        </mxCell>
        <mxCell id="761dnnyQ54j-Cl0NHfQN-9576" value="1" style="rounded=0;whiteSpace=wrap;html=1;fontSize=32;fillColor=#f5f5f5;fontColor=#333333;strokeColor=#666666;" parent="9KpWu18VyMETLlywFmQx-1830" vertex="1">
          <mxGeometry x="1170" y="630" width="10" height="10" as="geometry" />
        </mxCell>
        <mxCell id="761dnnyQ54j-Cl0NHfQN-9577" value="27" style="rounded=0;whiteSpace=wrap;html=1;fontSize=32;fillColor=#f5f5f5;fontColor=#333333;strokeColor=#666666;" parent="9KpWu18VyMETLlywFmQx-1830" vertex="1">
          <mxGeometry x="1170" y="360" width="270" height="270" as="geometry" />
        </mxCell>
        <mxCell id="761dnnyQ54j-Cl0NHfQN-9578" value="33" style="rounded=0;whiteSpace=wrap;html=1;fontSize=32;fillColor=#f5f5f5;fontColor=#333333;strokeColor=#666666;" parent="9KpWu18VyMETLlywFmQx-1830" vertex="1">
          <mxGeometry x="840" y="280" width="330" height="330" as="geometry" />
        </mxCell>
        <mxCell id="761dnnyQ54j-Cl0NHfQN-9579" value="8" style="rounded=0;whiteSpace=wrap;html=1;fontSize=32;fillColor=#f5f5f5;fontColor=#333333;strokeColor=#666666;" parent="9KpWu18VyMETLlywFmQx-1830" vertex="1">
          <mxGeometry x="1170" y="280" width="80" height="80" as="geometry" />
        </mxCell>
        <mxCell id="761dnnyQ54j-Cl0NHfQN-9580" value="19" style="rounded=0;whiteSpace=wrap;html=1;fontSize=32;fillColor=#f5f5f5;fontColor=#333333;strokeColor=#666666;" parent="9KpWu18VyMETLlywFmQx-1830" vertex="1">
          <mxGeometry x="1250" y="170" width="190" height="190" as="geometry" />
        </mxCell>
        <mxCell id="761dnnyQ54j-Cl0NHfQN-9581" value="28" style="rounded=0;whiteSpace=wrap;html=1;fontSize=32;fillColor=#f5f5f5;fontColor=#333333;strokeColor=#666666;" parent="9KpWu18VyMETLlywFmQx-1830" vertex="1">
          <mxGeometry x="840" width="280" height="280" as="geometry" />
        </mxCell>
        <mxCell id="761dnnyQ54j-Cl0NHfQN-9582" value="13" style="rounded=0;whiteSpace=wrap;html=1;fontSize=32;fillColor=#f5f5f5;fontColor=#333333;strokeColor=#666666;" parent="9KpWu18VyMETLlywFmQx-1830" vertex="1">
          <mxGeometry x="1120" y="150" width="130" height="130" as="geometry" />
        </mxCell>
        <mxCell id="761dnnyQ54j-Cl0NHfQN-9583" value="2" style="rounded=0;whiteSpace=wrap;html=1;fontSize=32;fillColor=#f5f5f5;fontColor=#333333;strokeColor=#666666;" parent="9KpWu18VyMETLlywFmQx-1830" vertex="1">
          <mxGeometry x="1250" y="150" width="20" height="20" as="geometry" />
        </mxCell>
        <mxCell id="761dnnyQ54j-Cl0NHfQN-9584" value="17" style="rounded=0;whiteSpace=wrap;html=1;fontSize=32;fillColor=#f5f5f5;fontColor=#333333;strokeColor=#666666;" parent="9KpWu18VyMETLlywFmQx-1830" vertex="1">
          <mxGeometry x="1270" width="170" height="170" as="geometry" />
        </mxCell>
        <mxCell id="761dnnyQ54j-Cl0NHfQN-9585" value="15" style="rounded=0;whiteSpace=wrap;html=1;fontSize=32;fillColor=#f5f5f5;fontColor=#333333;strokeColor=#666666;" parent="9KpWu18VyMETLlywFmQx-1830" vertex="1">
          <mxGeometry x="1120" width="150" height="150" as="geometry" />
        </mxCell>
        <mxCell id="9KpWu18VyMETLlywFmQx-1831" value="" style="group;flipV=1;" vertex="1" connectable="0" parent="1">
          <mxGeometry x="2900" y="8730" width="1440" height="1310" as="geometry" />
        </mxCell>
        <mxCell id="761dnnyQ54j-Cl0NHfQN-12110" value="62" style="rounded=0;whiteSpace=wrap;html=1;fontSize=32;" parent="9KpWu18VyMETLlywFmQx-1831" vertex="1">
          <mxGeometry y="690" width="620" height="620" as="geometry" />
        </mxCell>
        <mxCell id="761dnnyQ54j-Cl0NHfQN-12111" value="36" style="rounded=0;whiteSpace=wrap;html=1;fontSize=32;" parent="9KpWu18VyMETLlywFmQx-1831" vertex="1">
          <mxGeometry x="620" y="950" width="360" height="360" as="geometry" />
        </mxCell>
        <mxCell id="761dnnyQ54j-Cl0NHfQN-12112" value="46" style="rounded=0;whiteSpace=wrap;html=1;fontSize=32;" parent="9KpWu18VyMETLlywFmQx-1831" vertex="1">
          <mxGeometry x="980" y="850" width="460" height="460" as="geometry" />
        </mxCell>
        <mxCell id="761dnnyQ54j-Cl0NHfQN-12113" value="26" style="rounded=0;whiteSpace=wrap;html=1;fontSize=32;" parent="9KpWu18VyMETLlywFmQx-1831" vertex="1">
          <mxGeometry x="620" y="690" width="260" height="260" as="geometry" />
        </mxCell>
        <mxCell id="761dnnyQ54j-Cl0NHfQN-12114" value="10" style="rounded=0;whiteSpace=wrap;html=1;fontSize=32;" parent="9KpWu18VyMETLlywFmQx-1831" vertex="1">
          <mxGeometry x="880" y="850" width="100" height="100" as="geometry" />
        </mxCell>
        <mxCell id="761dnnyQ54j-Cl0NHfQN-12115" value="16" style="rounded=0;whiteSpace=wrap;html=1;fontSize=32;" parent="9KpWu18VyMETLlywFmQx-1831" vertex="1">
          <mxGeometry x="880" y="690" width="160" height="160" as="geometry" />
        </mxCell>
        <mxCell id="761dnnyQ54j-Cl0NHfQN-12116" value="40" style="rounded=0;whiteSpace=wrap;html=1;fontSize=32;" parent="9KpWu18VyMETLlywFmQx-1831" vertex="1">
          <mxGeometry x="1040" y="450" width="400" height="400" as="geometry" />
        </mxCell>
        <mxCell id="761dnnyQ54j-Cl0NHfQN-12117" value="69" style="rounded=0;whiteSpace=wrap;html=1;fontSize=32;" parent="9KpWu18VyMETLlywFmQx-1831" vertex="1">
          <mxGeometry width="690" height="690" as="geometry" />
        </mxCell>
        <mxCell id="761dnnyQ54j-Cl0NHfQN-12118" value="20" style="rounded=0;whiteSpace=wrap;html=1;fontSize=32;" parent="9KpWu18VyMETLlywFmQx-1831" vertex="1">
          <mxGeometry x="690" y="490" width="200" height="200" as="geometry" />
        </mxCell>
        <mxCell id="761dnnyQ54j-Cl0NHfQN-12119" value="15" style="rounded=0;whiteSpace=wrap;html=1;fontSize=32;" parent="9KpWu18VyMETLlywFmQx-1831" vertex="1">
          <mxGeometry x="890" y="540" width="150" height="150" as="geometry" />
        </mxCell>
        <mxCell id="761dnnyQ54j-Cl0NHfQN-12120" value="6" style="rounded=0;whiteSpace=wrap;html=1;fontSize=32;" parent="9KpWu18VyMETLlywFmQx-1831" vertex="1">
          <mxGeometry x="890" y="480" width="60" height="60" as="geometry" />
        </mxCell>
        <mxCell id="761dnnyQ54j-Cl0NHfQN-12121" value="9" style="rounded=0;whiteSpace=wrap;html=1;fontSize=32;" parent="9KpWu18VyMETLlywFmQx-1831" vertex="1">
          <mxGeometry x="950" y="450" width="90" height="90" as="geometry" />
        </mxCell>
        <mxCell id="761dnnyQ54j-Cl0NHfQN-12122" value="19" style="rounded=0;whiteSpace=wrap;html=1;fontSize=32;" parent="9KpWu18VyMETLlywFmQx-1831" vertex="1">
          <mxGeometry x="690" y="300" width="190" height="190" as="geometry" />
        </mxCell>
        <mxCell id="761dnnyQ54j-Cl0NHfQN-12123" value="1" style="rounded=0;whiteSpace=wrap;html=1;fontSize=32;" parent="9KpWu18VyMETLlywFmQx-1831" vertex="1">
          <mxGeometry x="880" y="480" width="10" height="10" as="geometry" />
        </mxCell>
        <mxCell id="761dnnyQ54j-Cl0NHfQN-12124" value="7" style="rounded=0;whiteSpace=wrap;html=1;fontSize=32;" parent="9KpWu18VyMETLlywFmQx-1831" vertex="1">
          <mxGeometry x="880" y="410" width="70" height="70" as="geometry" />
        </mxCell>
        <mxCell id="761dnnyQ54j-Cl0NHfQN-12125" value="4" style="rounded=0;whiteSpace=wrap;html=1;fontSize=32;" parent="9KpWu18VyMETLlywFmQx-1831" vertex="1">
          <mxGeometry x="950" y="410" width="40" height="40" as="geometry" />
        </mxCell>
        <mxCell id="761dnnyQ54j-Cl0NHfQN-12126" value="45" style="rounded=0;whiteSpace=wrap;html=1;fontSize=32;" parent="9KpWu18VyMETLlywFmQx-1831" vertex="1">
          <mxGeometry x="990" width="450" height="450" as="geometry" />
        </mxCell>
        <mxCell id="761dnnyQ54j-Cl0NHfQN-12127" value="11" style="rounded=0;whiteSpace=wrap;html=1;fontSize=32;" parent="9KpWu18VyMETLlywFmQx-1831" vertex="1">
          <mxGeometry x="880" y="300" width="110" height="110" as="geometry" />
        </mxCell>
        <mxCell id="761dnnyQ54j-Cl0NHfQN-12128" value="30" style="rounded=0;whiteSpace=wrap;html=1;fontSize=32;" parent="9KpWu18VyMETLlywFmQx-1831" vertex="1">
          <mxGeometry x="690" width="300" height="300" as="geometry" />
        </mxCell>
        <mxCell id="9KpWu18VyMETLlywFmQx-1832" value="" style="group;flipV=1;" vertex="1" connectable="0" parent="1">
          <mxGeometry x="2940" y="10290" width="1440" height="1270" as="geometry" />
        </mxCell>
        <mxCell id="761dnnyQ54j-Cl0NHfQN-12190" value="58" style="rounded=0;whiteSpace=wrap;html=1;fontSize=32;" parent="9KpWu18VyMETLlywFmQx-1832" vertex="1">
          <mxGeometry y="690" width="580" height="580" as="geometry" />
        </mxCell>
        <mxCell id="761dnnyQ54j-Cl0NHfQN-12191" value="36" style="rounded=0;whiteSpace=wrap;html=1;fontSize=32;" parent="9KpWu18VyMETLlywFmQx-1832" vertex="1">
          <mxGeometry x="580" y="910" width="360" height="360" as="geometry" />
        </mxCell>
        <mxCell id="761dnnyQ54j-Cl0NHfQN-12192" value="50" style="rounded=0;whiteSpace=wrap;html=1;fontSize=32;" parent="9KpWu18VyMETLlywFmQx-1832" vertex="1">
          <mxGeometry x="940" y="770" width="500" height="500" as="geometry" />
        </mxCell>
        <mxCell id="761dnnyQ54j-Cl0NHfQN-12193" value="22" style="rounded=0;whiteSpace=wrap;html=1;fontSize=32;" parent="9KpWu18VyMETLlywFmQx-1832" vertex="1">
          <mxGeometry x="580" y="690" width="220" height="220" as="geometry" />
        </mxCell>
        <mxCell id="761dnnyQ54j-Cl0NHfQN-12194" value="14" style="rounded=0;whiteSpace=wrap;html=1;fontSize=32;" parent="9KpWu18VyMETLlywFmQx-1832" vertex="1">
          <mxGeometry x="800" y="770" width="140" height="140" as="geometry" />
        </mxCell>
        <mxCell id="761dnnyQ54j-Cl0NHfQN-12195" value="19" style="rounded=0;whiteSpace=wrap;html=1;fontSize=32;" parent="9KpWu18VyMETLlywFmQx-1832" vertex="1">
          <mxGeometry x="800" y="580" width="190" height="190" as="geometry" />
        </mxCell>
        <mxCell id="761dnnyQ54j-Cl0NHfQN-12196" value="45" style="rounded=0;whiteSpace=wrap;html=1;fontSize=32;" parent="9KpWu18VyMETLlywFmQx-1832" vertex="1">
          <mxGeometry x="990" y="320" width="450" height="450" as="geometry" />
        </mxCell>
        <mxCell id="761dnnyQ54j-Cl0NHfQN-12197" value="69" style="rounded=0;whiteSpace=wrap;html=1;fontSize=32;" parent="9KpWu18VyMETLlywFmQx-1832" vertex="1">
          <mxGeometry width="690" height="690" as="geometry" />
        </mxCell>
        <mxCell id="761dnnyQ54j-Cl0NHfQN-12198" value="11" style="rounded=0;whiteSpace=wrap;html=1;fontSize=32;" parent="9KpWu18VyMETLlywFmQx-1832" vertex="1">
          <mxGeometry x="690" y="580" width="110" height="110" as="geometry" />
        </mxCell>
        <mxCell id="761dnnyQ54j-Cl0NHfQN-12199" value="30" style="rounded=0;whiteSpace=wrap;html=1;fontSize=32;" parent="9KpWu18VyMETLlywFmQx-1832" vertex="1">
          <mxGeometry x="690" y="280" width="300" height="300" as="geometry" />
        </mxCell>
        <mxCell id="761dnnyQ54j-Cl0NHfQN-12200" value="4" style="rounded=0;whiteSpace=wrap;html=1;fontSize=32;" parent="9KpWu18VyMETLlywFmQx-1832" vertex="1">
          <mxGeometry x="990" y="280" width="40" height="40" as="geometry" />
        </mxCell>
        <mxCell id="761dnnyQ54j-Cl0NHfQN-12201" value="9" style="rounded=0;whiteSpace=wrap;html=1;fontSize=32;" parent="9KpWu18VyMETLlywFmQx-1832" vertex="1">
          <mxGeometry x="1030" y="230" width="90" height="90" as="geometry" />
        </mxCell>
        <mxCell id="761dnnyQ54j-Cl0NHfQN-12202" value="32" style="rounded=0;whiteSpace=wrap;html=1;fontSize=32;" parent="9KpWu18VyMETLlywFmQx-1832" vertex="1">
          <mxGeometry x="1120" width="320" height="320" as="geometry" />
        </mxCell>
        <mxCell id="761dnnyQ54j-Cl0NHfQN-12203" value="28" style="rounded=0;whiteSpace=wrap;html=1;fontSize=32;" parent="9KpWu18VyMETLlywFmQx-1832" vertex="1">
          <mxGeometry x="690" width="280" height="280" as="geometry" />
        </mxCell>
        <mxCell id="761dnnyQ54j-Cl0NHfQN-12204" value="6" style="rounded=0;whiteSpace=wrap;html=1;fontSize=32;" parent="9KpWu18VyMETLlywFmQx-1832" vertex="1">
          <mxGeometry x="970" y="220" width="60" height="60" as="geometry" />
        </mxCell>
        <mxCell id="761dnnyQ54j-Cl0NHfQN-12205" value="1" style="rounded=0;whiteSpace=wrap;html=1;fontSize=32;" parent="9KpWu18VyMETLlywFmQx-1832" vertex="1">
          <mxGeometry x="1030" y="220" width="10" height="10" as="geometry" />
        </mxCell>
        <mxCell id="761dnnyQ54j-Cl0NHfQN-12206" value="8" style="rounded=0;whiteSpace=wrap;html=1;fontSize=32;" parent="9KpWu18VyMETLlywFmQx-1832" vertex="1">
          <mxGeometry x="1040" y="150" width="80" height="80" as="geometry" />
        </mxCell>
        <mxCell id="761dnnyQ54j-Cl0NHfQN-12207" value="7" style="rounded=0;whiteSpace=wrap;html=1;fontSize=32;" parent="9KpWu18VyMETLlywFmQx-1832" vertex="1">
          <mxGeometry x="970" y="150" width="70" height="70" as="geometry" />
        </mxCell>
        <mxCell id="761dnnyQ54j-Cl0NHfQN-12208" value="15" style="rounded=0;whiteSpace=wrap;html=1;fontSize=32;" parent="9KpWu18VyMETLlywFmQx-1832" vertex="1">
          <mxGeometry x="970" width="150" height="150" as="geometry" />
        </mxCell>
        <mxCell id="9KpWu18VyMETLlywFmQx-1833" value="" style="group;flipV=1;" vertex="1" connectable="0" parent="1">
          <mxGeometry x="3120" y="11810" width="1440" height="1330" as="geometry" />
        </mxCell>
        <mxCell id="9KpWu18VyMETLlywFmQx-1487" value="63" style="rounded=0;whiteSpace=wrap;html=1;fontSize=32;" vertex="1" parent="9KpWu18VyMETLlywFmQx-1833">
          <mxGeometry y="700" width="630" height="630" as="geometry" />
        </mxCell>
        <mxCell id="9KpWu18VyMETLlywFmQx-1488" value="30" style="rounded=0;whiteSpace=wrap;html=1;fontSize=32;" vertex="1" parent="9KpWu18VyMETLlywFmQx-1833">
          <mxGeometry x="630" y="1030" width="300" height="300" as="geometry" />
        </mxCell>
        <mxCell id="9KpWu18VyMETLlywFmQx-1489" value="23" style="rounded=0;whiteSpace=wrap;html=1;fontSize=32;" vertex="1" parent="9KpWu18VyMETLlywFmQx-1833">
          <mxGeometry x="930" y="1100" width="230" height="230" as="geometry" />
        </mxCell>
        <mxCell id="9KpWu18VyMETLlywFmQx-1490" value="28" style="rounded=0;whiteSpace=wrap;html=1;fontSize=32;" vertex="1" parent="9KpWu18VyMETLlywFmQx-1833">
          <mxGeometry x="1160" y="1050" width="280" height="280" as="geometry" />
        </mxCell>
        <mxCell id="9KpWu18VyMETLlywFmQx-1491" value="7" style="rounded=0;whiteSpace=wrap;html=1;fontSize=32;" vertex="1" parent="9KpWu18VyMETLlywFmQx-1833">
          <mxGeometry x="930" y="1030" width="70" height="70" as="geometry" />
        </mxCell>
        <mxCell id="9KpWu18VyMETLlywFmQx-1492" value="11" style="rounded=0;whiteSpace=wrap;html=1;fontSize=32;" vertex="1" parent="9KpWu18VyMETLlywFmQx-1833">
          <mxGeometry x="1000" y="990" width="110" height="110" as="geometry" />
        </mxCell>
        <mxCell id="9KpWu18VyMETLlywFmQx-1493" value="5" style="rounded=0;whiteSpace=wrap;html=1;fontSize=32;" vertex="1" parent="9KpWu18VyMETLlywFmQx-1833">
          <mxGeometry x="1110" y="1050" width="50" height="50" as="geometry" />
        </mxCell>
        <mxCell id="9KpWu18VyMETLlywFmQx-1494" value="6" style="rounded=0;whiteSpace=wrap;html=1;fontSize=32;" vertex="1" parent="9KpWu18VyMETLlywFmQx-1833">
          <mxGeometry x="1110" y="990" width="60" height="60" as="geometry" />
        </mxCell>
        <mxCell id="9KpWu18VyMETLlywFmQx-1495" value="27" style="rounded=0;whiteSpace=wrap;html=1;fontSize=32;" vertex="1" parent="9KpWu18VyMETLlywFmQx-1833">
          <mxGeometry x="1170" y="780" width="270" height="270" as="geometry" />
        </mxCell>
        <mxCell id="9KpWu18VyMETLlywFmQx-1496" value="33" style="rounded=0;whiteSpace=wrap;html=1;fontSize=32;" vertex="1" parent="9KpWu18VyMETLlywFmQx-1833">
          <mxGeometry x="630" y="700" width="330" height="330" as="geometry" />
        </mxCell>
        <mxCell id="9KpWu18VyMETLlywFmQx-1497" value="4" style="rounded=0;whiteSpace=wrap;html=1;fontSize=32;" vertex="1" parent="9KpWu18VyMETLlywFmQx-1833">
          <mxGeometry x="960" y="990" width="40" height="40" as="geometry" />
        </mxCell>
        <mxCell id="9KpWu18VyMETLlywFmQx-1498" value="21" style="rounded=0;whiteSpace=wrap;html=1;fontSize=32;" vertex="1" parent="9KpWu18VyMETLlywFmQx-1833">
          <mxGeometry x="960" y="780" width="210" height="210" as="geometry" />
        </mxCell>
        <mxCell id="9KpWu18VyMETLlywFmQx-1499" value="8" style="rounded=0;whiteSpace=wrap;html=1;fontSize=32;" vertex="1" parent="9KpWu18VyMETLlywFmQx-1833">
          <mxGeometry x="960" y="700" width="80" height="80" as="geometry" />
        </mxCell>
        <mxCell id="9KpWu18VyMETLlywFmQx-1500" value="40" style="rounded=0;whiteSpace=wrap;html=1;fontSize=32;" vertex="1" parent="9KpWu18VyMETLlywFmQx-1833">
          <mxGeometry x="1040" y="380" width="400" height="400" as="geometry" />
        </mxCell>
        <mxCell id="9KpWu18VyMETLlywFmQx-1501" value="70" style="rounded=0;whiteSpace=wrap;html=1;fontSize=32;" vertex="1" parent="9KpWu18VyMETLlywFmQx-1833">
          <mxGeometry width="700" height="700" as="geometry" />
        </mxCell>
        <mxCell id="9KpWu18VyMETLlywFmQx-1502" value="34" style="rounded=0;whiteSpace=wrap;html=1;fontSize=32;" vertex="1" parent="9KpWu18VyMETLlywFmQx-1833">
          <mxGeometry x="700" y="360" width="340" height="340" as="geometry" />
        </mxCell>
        <mxCell id="9KpWu18VyMETLlywFmQx-1503" value="2" style="rounded=0;whiteSpace=wrap;html=1;fontSize=32;" vertex="1" parent="9KpWu18VyMETLlywFmQx-1833">
          <mxGeometry x="1040" y="360" width="20" height="20" as="geometry" />
        </mxCell>
        <mxCell id="9KpWu18VyMETLlywFmQx-1504" value="38" style="rounded=0;whiteSpace=wrap;html=1;fontSize=32;" vertex="1" parent="9KpWu18VyMETLlywFmQx-1833">
          <mxGeometry x="1060" width="380" height="380" as="geometry" />
        </mxCell>
        <mxCell id="9KpWu18VyMETLlywFmQx-1505" value="36" style="rounded=0;whiteSpace=wrap;html=1;fontSize=32;" vertex="1" parent="9KpWu18VyMETLlywFmQx-1833">
          <mxGeometry x="700" width="360" height="360" as="geometry" />
        </mxCell>
        <mxCell id="9KpWu18VyMETLlywFmQx-1834" value="" style="group;flipV=1;" vertex="1" connectable="0" parent="1">
          <mxGeometry x="3170" y="13430" width="1440" height="1410" as="geometry" />
        </mxCell>
        <mxCell id="9KpWu18VyMETLlywFmQx-1507" value="63" style="rounded=0;whiteSpace=wrap;html=1;fontSize=32;" vertex="1" parent="9KpWu18VyMETLlywFmQx-1834">
          <mxGeometry y="780" width="630" height="630" as="geometry" />
        </mxCell>
        <mxCell id="9KpWu18VyMETLlywFmQx-1508" value="20" style="rounded=0;whiteSpace=wrap;html=1;fontSize=32;" vertex="1" parent="9KpWu18VyMETLlywFmQx-1834">
          <mxGeometry x="630" y="1210" width="200" height="200" as="geometry" />
        </mxCell>
        <mxCell id="9KpWu18VyMETLlywFmQx-1509" value="27" style="rounded=0;whiteSpace=wrap;html=1;fontSize=32;" vertex="1" parent="9KpWu18VyMETLlywFmQx-1834">
          <mxGeometry x="830" y="1140" width="270" height="270" as="geometry" />
        </mxCell>
        <mxCell id="9KpWu18VyMETLlywFmQx-1510" value="11" style="rounded=0;whiteSpace=wrap;html=1;fontSize=32;" vertex="1" parent="9KpWu18VyMETLlywFmQx-1834">
          <mxGeometry x="630" y="1100" width="110" height="110" as="geometry" />
        </mxCell>
        <mxCell id="9KpWu18VyMETLlywFmQx-1511" value="5" style="rounded=0;whiteSpace=wrap;html=1;fontSize=32;" vertex="1" parent="9KpWu18VyMETLlywFmQx-1834">
          <mxGeometry x="740" y="1160" width="50" height="50" as="geometry" />
        </mxCell>
        <mxCell id="9KpWu18VyMETLlywFmQx-1512" value="4" style="rounded=0;whiteSpace=wrap;html=1;fontSize=32;" vertex="1" parent="9KpWu18VyMETLlywFmQx-1834">
          <mxGeometry x="790" y="1170" width="40" height="40" as="geometry" />
        </mxCell>
        <mxCell id="9KpWu18VyMETLlywFmQx-1513" value="1" style="rounded=0;whiteSpace=wrap;html=1;fontSize=32;" vertex="1" parent="9KpWu18VyMETLlywFmQx-1834">
          <mxGeometry x="790" y="1160" width="10" height="10" as="geometry" />
        </mxCell>
        <mxCell id="9KpWu18VyMETLlywFmQx-1514" value="3" style="rounded=0;whiteSpace=wrap;html=1;fontSize=32;" vertex="1" parent="9KpWu18VyMETLlywFmQx-1834">
          <mxGeometry x="800" y="1140" width="30" height="30" as="geometry" />
        </mxCell>
        <mxCell id="9KpWu18VyMETLlywFmQx-1515" value="6" style="rounded=0;whiteSpace=wrap;html=1;fontSize=32;" vertex="1" parent="9KpWu18VyMETLlywFmQx-1834">
          <mxGeometry x="740" y="1100" width="60" height="60" as="geometry" />
        </mxCell>
        <mxCell id="9KpWu18VyMETLlywFmQx-1516" value="34" style="rounded=0;whiteSpace=wrap;html=1;fontSize=32;" vertex="1" parent="9KpWu18VyMETLlywFmQx-1834">
          <mxGeometry x="1100" y="1070" width="340" height="340" as="geometry" />
        </mxCell>
        <mxCell id="9KpWu18VyMETLlywFmQx-1517" value="23" style="rounded=0;whiteSpace=wrap;html=1;fontSize=32;" vertex="1" parent="9KpWu18VyMETLlywFmQx-1834">
          <mxGeometry x="800" y="910" width="230" height="230" as="geometry" />
        </mxCell>
        <mxCell id="9KpWu18VyMETLlywFmQx-1518" value="7" style="rounded=0;whiteSpace=wrap;html=1;fontSize=32;" vertex="1" parent="9KpWu18VyMETLlywFmQx-1834">
          <mxGeometry x="1030" y="1070" width="70" height="70" as="geometry" />
        </mxCell>
        <mxCell id="9KpWu18VyMETLlywFmQx-1519" value="17" style="rounded=0;whiteSpace=wrap;html=1;fontSize=32;" vertex="1" parent="9KpWu18VyMETLlywFmQx-1834">
          <mxGeometry x="630" y="930" width="170" height="170" as="geometry" />
        </mxCell>
        <mxCell id="9KpWu18VyMETLlywFmQx-1520" value="15" style="rounded=0;whiteSpace=wrap;html=1;fontSize=32;" vertex="1" parent="9KpWu18VyMETLlywFmQx-1834">
          <mxGeometry x="630" y="780" width="150" height="150" as="geometry" />
        </mxCell>
        <mxCell id="9KpWu18VyMETLlywFmQx-1521" value="2" style="rounded=0;whiteSpace=wrap;html=1;fontSize=32;" vertex="1" parent="9KpWu18VyMETLlywFmQx-1834">
          <mxGeometry x="780" y="910" width="20" height="20" as="geometry" />
        </mxCell>
        <mxCell id="9KpWu18VyMETLlywFmQx-1522" value="41" style="rounded=0;whiteSpace=wrap;html=1;fontSize=32;" vertex="1" parent="9KpWu18VyMETLlywFmQx-1834">
          <mxGeometry x="1030" y="660" width="410" height="410" as="geometry" />
        </mxCell>
        <mxCell id="9KpWu18VyMETLlywFmQx-1523" value="25" style="rounded=0;whiteSpace=wrap;html=1;fontSize=32;" vertex="1" parent="9KpWu18VyMETLlywFmQx-1834">
          <mxGeometry x="780" y="660" width="250" height="250" as="geometry" />
        </mxCell>
        <mxCell id="9KpWu18VyMETLlywFmQx-1524" value="78" style="rounded=0;whiteSpace=wrap;html=1;fontSize=32;" vertex="1" parent="9KpWu18VyMETLlywFmQx-1834">
          <mxGeometry width="780" height="780" as="geometry" />
        </mxCell>
        <mxCell id="9KpWu18VyMETLlywFmQx-1525" value="66" style="rounded=0;whiteSpace=wrap;html=1;fontSize=32;" vertex="1" parent="9KpWu18VyMETLlywFmQx-1834">
          <mxGeometry x="780" width="660" height="660" as="geometry" />
        </mxCell>
        <mxCell id="9KpWu18VyMETLlywFmQx-1835" value="" style="group;flipV=1;" vertex="1" connectable="0" parent="1">
          <mxGeometry x="2960" y="15270" width="1440" height="1010" as="geometry" />
        </mxCell>
        <mxCell id="9KpWu18VyMETLlywFmQx-1527" value="48" style="rounded=0;whiteSpace=wrap;html=1;fontSize=32;" vertex="1" parent="9KpWu18VyMETLlywFmQx-1835">
          <mxGeometry y="530" width="480" height="480" as="geometry" />
        </mxCell>
        <mxCell id="9KpWu18VyMETLlywFmQx-1528" value="31" style="rounded=0;whiteSpace=wrap;html=1;fontSize=32;" vertex="1" parent="9KpWu18VyMETLlywFmQx-1835">
          <mxGeometry x="480" y="700" width="310" height="310" as="geometry" />
        </mxCell>
        <mxCell id="9KpWu18VyMETLlywFmQx-1529" value="29" style="rounded=0;whiteSpace=wrap;html=1;fontSize=32;" vertex="1" parent="9KpWu18VyMETLlywFmQx-1835">
          <mxGeometry x="790" y="720" width="290" height="290" as="geometry" />
        </mxCell>
        <mxCell id="9KpWu18VyMETLlywFmQx-1530" value="36" style="rounded=0;whiteSpace=wrap;html=1;fontSize=32;" vertex="1" parent="9KpWu18VyMETLlywFmQx-1835">
          <mxGeometry x="1080" y="650" width="360" height="360" as="geometry" />
        </mxCell>
        <mxCell id="9KpWu18VyMETLlywFmQx-1531" value="21" style="rounded=0;whiteSpace=wrap;html=1;fontSize=32;" vertex="1" parent="9KpWu18VyMETLlywFmQx-1835">
          <mxGeometry x="790" y="510" width="210" height="210" as="geometry" />
        </mxCell>
        <mxCell id="9KpWu18VyMETLlywFmQx-1532" value="8" style="rounded=0;whiteSpace=wrap;html=1;fontSize=32;" vertex="1" parent="9KpWu18VyMETLlywFmQx-1835">
          <mxGeometry x="1000" y="640" width="80" height="80" as="geometry" />
        </mxCell>
        <mxCell id="9KpWu18VyMETLlywFmQx-1533" value="12" style="rounded=0;whiteSpace=wrap;html=1;fontSize=32;" vertex="1" parent="9KpWu18VyMETLlywFmQx-1835">
          <mxGeometry x="480" y="580" width="120" height="120" as="geometry" />
        </mxCell>
        <mxCell id="9KpWu18VyMETLlywFmQx-1534" value="19" style="rounded=0;whiteSpace=wrap;html=1;fontSize=32;" vertex="1" parent="9KpWu18VyMETLlywFmQx-1835">
          <mxGeometry x="600" y="510" width="190" height="190" as="geometry" />
        </mxCell>
        <mxCell id="9KpWu18VyMETLlywFmQx-1535" value="5" style="rounded=0;whiteSpace=wrap;html=1;fontSize=32;" vertex="1" parent="9KpWu18VyMETLlywFmQx-1835">
          <mxGeometry x="480" y="530" width="50" height="50" as="geometry" />
        </mxCell>
        <mxCell id="9KpWu18VyMETLlywFmQx-1536" value="7" style="rounded=0;whiteSpace=wrap;html=1;fontSize=32;" vertex="1" parent="9KpWu18VyMETLlywFmQx-1835">
          <mxGeometry x="530" y="510" width="70" height="70" as="geometry" />
        </mxCell>
        <mxCell id="9KpWu18VyMETLlywFmQx-1537" value="1" style="rounded=0;whiteSpace=wrap;html=1;fontSize=32;" vertex="1" parent="9KpWu18VyMETLlywFmQx-1835">
          <mxGeometry x="1080" y="640" width="10" height="10" as="geometry" />
        </mxCell>
        <mxCell id="9KpWu18VyMETLlywFmQx-1538" value="10" style="rounded=0;whiteSpace=wrap;html=1;fontSize=32;" vertex="1" parent="9KpWu18VyMETLlywFmQx-1835">
          <mxGeometry x="1090" y="550" width="100" height="100" as="geometry" />
        </mxCell>
        <mxCell id="9KpWu18VyMETLlywFmQx-1539" value="9" style="rounded=0;whiteSpace=wrap;html=1;fontSize=32;" vertex="1" parent="9KpWu18VyMETLlywFmQx-1835">
          <mxGeometry x="1000" y="550" width="90" height="90" as="geometry" />
        </mxCell>
        <mxCell id="9KpWu18VyMETLlywFmQx-1540" value="25" style="rounded=0;whiteSpace=wrap;html=1;fontSize=32;" vertex="1" parent="9KpWu18VyMETLlywFmQx-1835">
          <mxGeometry x="1190" y="400" width="250" height="250" as="geometry" />
        </mxCell>
        <mxCell id="9KpWu18VyMETLlywFmQx-1541" value="4" style="rounded=0;whiteSpace=wrap;html=1;fontSize=32;" vertex="1" parent="9KpWu18VyMETLlywFmQx-1835">
          <mxGeometry x="1000" y="510" width="40" height="40" as="geometry" />
        </mxCell>
        <mxCell id="9KpWu18VyMETLlywFmQx-1542" value="15" style="rounded=0;whiteSpace=wrap;html=1;fontSize=32;" vertex="1" parent="9KpWu18VyMETLlywFmQx-1835">
          <mxGeometry x="1040" y="400" width="150" height="150" as="geometry" />
        </mxCell>
        <mxCell id="9KpWu18VyMETLlywFmQx-1543" value="53" style="rounded=0;whiteSpace=wrap;html=1;fontSize=32;" vertex="1" parent="9KpWu18VyMETLlywFmQx-1835">
          <mxGeometry width="530" height="530" as="geometry" />
        </mxCell>
        <mxCell id="9KpWu18VyMETLlywFmQx-1544" value="51" style="rounded=0;whiteSpace=wrap;html=1;fontSize=32;" vertex="1" parent="9KpWu18VyMETLlywFmQx-1835">
          <mxGeometry x="530" width="510" height="510" as="geometry" />
        </mxCell>
        <mxCell id="9KpWu18VyMETLlywFmQx-1545" value="40" style="rounded=0;whiteSpace=wrap;html=1;fontSize=32;" vertex="1" parent="9KpWu18VyMETLlywFmQx-1835">
          <mxGeometry x="1040" width="400" height="400" as="geometry" />
        </mxCell>
        <mxCell id="9KpWu18VyMETLlywFmQx-1836" value="" style="group;flipV=1;" vertex="1" connectable="0" parent="1">
          <mxGeometry x="2890" y="16490" width="1440" height="1350" as="geometry" />
        </mxCell>
        <mxCell id="9KpWu18VyMETLlywFmQx-1547" value="51" style="rounded=0;whiteSpace=wrap;html=1;fontSize=32;" vertex="1" parent="9KpWu18VyMETLlywFmQx-1836">
          <mxGeometry y="840" width="510" height="510" as="geometry" />
        </mxCell>
        <mxCell id="9KpWu18VyMETLlywFmQx-1548" value="22" style="rounded=0;whiteSpace=wrap;html=1;fontSize=32;" vertex="1" parent="9KpWu18VyMETLlywFmQx-1836">
          <mxGeometry x="510" y="1130" width="220" height="220" as="geometry" />
        </mxCell>
        <mxCell id="9KpWu18VyMETLlywFmQx-1549" value="15" style="rounded=0;whiteSpace=wrap;html=1;fontSize=32;" vertex="1" parent="9KpWu18VyMETLlywFmQx-1836">
          <mxGeometry x="730" y="1200" width="150" height="150" as="geometry" />
        </mxCell>
        <mxCell id="9KpWu18VyMETLlywFmQx-1550" value="23" style="rounded=0;whiteSpace=wrap;html=1;fontSize=32;" vertex="1" parent="9KpWu18VyMETLlywFmQx-1836">
          <mxGeometry x="880" y="1120" width="230" height="230" as="geometry" />
        </mxCell>
        <mxCell id="9KpWu18VyMETLlywFmQx-1551" value="7" style="rounded=0;whiteSpace=wrap;html=1;fontSize=32;" vertex="1" parent="9KpWu18VyMETLlywFmQx-1836">
          <mxGeometry x="730" y="1130" width="70" height="70" as="geometry" />
        </mxCell>
        <mxCell id="9KpWu18VyMETLlywFmQx-1552" value="8" style="rounded=0;whiteSpace=wrap;html=1;fontSize=32;" vertex="1" parent="9KpWu18VyMETLlywFmQx-1836">
          <mxGeometry x="800" y="1120" width="80" height="80" as="geometry" />
        </mxCell>
        <mxCell id="9KpWu18VyMETLlywFmQx-1553" value="29" style="rounded=0;whiteSpace=wrap;html=1;fontSize=32;" vertex="1" parent="9KpWu18VyMETLlywFmQx-1836">
          <mxGeometry x="510" y="840" width="290" height="290" as="geometry" />
        </mxCell>
        <mxCell id="9KpWu18VyMETLlywFmQx-1554" value="14" style="rounded=0;whiteSpace=wrap;html=1;fontSize=32;" vertex="1" parent="9KpWu18VyMETLlywFmQx-1836">
          <mxGeometry x="1110" y="1210" width="140" height="140" as="geometry" />
        </mxCell>
        <mxCell id="9KpWu18VyMETLlywFmQx-1555" value="19" style="rounded=0;whiteSpace=wrap;html=1;fontSize=32;" vertex="1" parent="9KpWu18VyMETLlywFmQx-1836">
          <mxGeometry x="1250" y="1160" width="190" height="190" as="geometry" />
        </mxCell>
        <mxCell id="9KpWu18VyMETLlywFmQx-1556" value="9" style="rounded=0;whiteSpace=wrap;html=1;fontSize=32;" vertex="1" parent="9KpWu18VyMETLlywFmQx-1836">
          <mxGeometry x="1110" y="1120" width="90" height="90" as="geometry" />
        </mxCell>
        <mxCell id="9KpWu18VyMETLlywFmQx-1557" value="5" style="rounded=0;whiteSpace=wrap;html=1;fontSize=32;" vertex="1" parent="9KpWu18VyMETLlywFmQx-1836">
          <mxGeometry x="1200" y="1160" width="50" height="50" as="geometry" />
        </mxCell>
        <mxCell id="9KpWu18VyMETLlywFmQx-1558" value="4" style="rounded=0;whiteSpace=wrap;html=1;fontSize=32;" vertex="1" parent="9KpWu18VyMETLlywFmQx-1836">
          <mxGeometry x="1200" y="1120" width="40" height="40" as="geometry" />
        </mxCell>
        <mxCell id="9KpWu18VyMETLlywFmQx-1559" value="20" style="rounded=0;whiteSpace=wrap;html=1;fontSize=32;" vertex="1" parent="9KpWu18VyMETLlywFmQx-1836">
          <mxGeometry x="1240" y="960" width="200" height="200" as="geometry" />
        </mxCell>
        <mxCell id="9KpWu18VyMETLlywFmQx-1560" value="28" style="rounded=0;whiteSpace=wrap;html=1;fontSize=32;" vertex="1" parent="9KpWu18VyMETLlywFmQx-1836">
          <mxGeometry x="800" y="840" width="280" height="280" as="geometry" />
        </mxCell>
        <mxCell id="9KpWu18VyMETLlywFmQx-1561" value="16" style="rounded=0;whiteSpace=wrap;html=1;fontSize=32;" vertex="1" parent="9KpWu18VyMETLlywFmQx-1836">
          <mxGeometry x="1080" y="960" width="160" height="160" as="geometry" />
        </mxCell>
        <mxCell id="9KpWu18VyMETLlywFmQx-1562" value="36" style="rounded=0;whiteSpace=wrap;html=1;fontSize=32;" vertex="1" parent="9KpWu18VyMETLlywFmQx-1836">
          <mxGeometry x="1080" y="600" width="360" height="360" as="geometry" />
        </mxCell>
        <mxCell id="9KpWu18VyMETLlywFmQx-1563" value="84" style="rounded=0;whiteSpace=wrap;html=1;fontSize=32;" vertex="1" parent="9KpWu18VyMETLlywFmQx-1836">
          <mxGeometry width="840" height="840" as="geometry" />
        </mxCell>
        <mxCell id="9KpWu18VyMETLlywFmQx-1564" value="24" style="rounded=0;whiteSpace=wrap;html=1;fontSize=32;" vertex="1" parent="9KpWu18VyMETLlywFmQx-1836">
          <mxGeometry x="840" y="600" width="240" height="240" as="geometry" />
        </mxCell>
        <mxCell id="9KpWu18VyMETLlywFmQx-1565" value="60" style="rounded=0;whiteSpace=wrap;html=1;fontSize=32;" vertex="1" parent="9KpWu18VyMETLlywFmQx-1836">
          <mxGeometry x="840" width="600" height="600" as="geometry" />
        </mxCell>
        <mxCell id="9KpWu18VyMETLlywFmQx-1837" value="" style="group;flipV=1;" vertex="1" connectable="0" parent="1">
          <mxGeometry x="2910" y="18030" width="1440" height="1170" as="geometry" />
        </mxCell>
        <mxCell id="9KpWu18VyMETLlywFmQx-1567" value="39" style="rounded=0;whiteSpace=wrap;html=1;fontSize=32;" vertex="1" parent="9KpWu18VyMETLlywFmQx-1837">
          <mxGeometry y="780" width="390" height="390" as="geometry" />
        </mxCell>
        <mxCell id="9KpWu18VyMETLlywFmQx-1568" value="20" style="rounded=0;whiteSpace=wrap;html=1;fontSize=32;" vertex="1" parent="9KpWu18VyMETLlywFmQx-1837">
          <mxGeometry x="390" y="970" width="200" height="200" as="geometry" />
        </mxCell>
        <mxCell id="9KpWu18VyMETLlywFmQx-1569" value="21" style="rounded=0;whiteSpace=wrap;html=1;fontSize=32;" vertex="1" parent="9KpWu18VyMETLlywFmQx-1837">
          <mxGeometry x="590" y="960" width="210" height="210" as="geometry" />
        </mxCell>
        <mxCell id="9KpWu18VyMETLlywFmQx-1570" value="19" style="rounded=0;whiteSpace=wrap;html=1;fontSize=32;" vertex="1" parent="9KpWu18VyMETLlywFmQx-1837">
          <mxGeometry x="390" y="780" width="190" height="190" as="geometry" />
        </mxCell>
        <mxCell id="9KpWu18VyMETLlywFmQx-1571" value="1" style="rounded=0;whiteSpace=wrap;html=1;fontSize=32;" vertex="1" parent="9KpWu18VyMETLlywFmQx-1837">
          <mxGeometry x="580" y="960" width="10" height="10" as="geometry" />
        </mxCell>
        <mxCell id="9KpWu18VyMETLlywFmQx-1572" value="25" style="rounded=0;whiteSpace=wrap;html=1;fontSize=32;" vertex="1" parent="9KpWu18VyMETLlywFmQx-1837">
          <mxGeometry x="800" y="920" width="250" height="250" as="geometry" />
        </mxCell>
        <mxCell id="9KpWu18VyMETLlywFmQx-1573" value="18" style="rounded=0;whiteSpace=wrap;html=1;fontSize=32;" vertex="1" parent="9KpWu18VyMETLlywFmQx-1837">
          <mxGeometry x="580" y="780" width="180" height="180" as="geometry" />
        </mxCell>
        <mxCell id="9KpWu18VyMETLlywFmQx-1574" value="4" style="rounded=0;whiteSpace=wrap;html=1;fontSize=32;" vertex="1" parent="9KpWu18VyMETLlywFmQx-1837">
          <mxGeometry x="760" y="920" width="40" height="40" as="geometry" />
        </mxCell>
        <mxCell id="9KpWu18VyMETLlywFmQx-1575" value="16" style="rounded=0;whiteSpace=wrap;html=1;fontSize=32;" vertex="1" parent="9KpWu18VyMETLlywFmQx-1837">
          <mxGeometry x="1050" y="1010" width="160" height="160" as="geometry" />
        </mxCell>
        <mxCell id="9KpWu18VyMETLlywFmQx-1576" value="23" style="rounded=0;whiteSpace=wrap;html=1;fontSize=32;" vertex="1" parent="9KpWu18VyMETLlywFmQx-1837">
          <mxGeometry x="1210" y="940" width="230" height="230" as="geometry" />
        </mxCell>
        <mxCell id="9KpWu18VyMETLlywFmQx-1577" value="9" style="rounded=0;whiteSpace=wrap;html=1;fontSize=32;" vertex="1" parent="9KpWu18VyMETLlywFmQx-1837">
          <mxGeometry x="1050" y="920" width="90" height="90" as="geometry" />
        </mxCell>
        <mxCell id="9KpWu18VyMETLlywFmQx-1578" value="7" style="rounded=0;whiteSpace=wrap;html=1;fontSize=32;" vertex="1" parent="9KpWu18VyMETLlywFmQx-1837">
          <mxGeometry x="1140" y="940" width="70" height="70" as="geometry" />
        </mxCell>
        <mxCell id="9KpWu18VyMETLlywFmQx-1579" value="2" style="rounded=0;whiteSpace=wrap;html=1;fontSize=32;" vertex="1" parent="9KpWu18VyMETLlywFmQx-1837">
          <mxGeometry x="1140" y="920" width="20" height="20" as="geometry" />
        </mxCell>
        <mxCell id="9KpWu18VyMETLlywFmQx-1580" value="28" style="rounded=0;whiteSpace=wrap;html=1;fontSize=32;" vertex="1" parent="9KpWu18VyMETLlywFmQx-1837">
          <mxGeometry x="1160" y="660" width="280" height="280" as="geometry" />
        </mxCell>
        <mxCell id="9KpWu18VyMETLlywFmQx-1581" value="14" style="rounded=0;whiteSpace=wrap;html=1;fontSize=32;" vertex="1" parent="9KpWu18VyMETLlywFmQx-1837">
          <mxGeometry x="760" y="780" width="140" height="140" as="geometry" />
        </mxCell>
        <mxCell id="9KpWu18VyMETLlywFmQx-1582" value="26" style="rounded=0;whiteSpace=wrap;html=1;fontSize=32;" vertex="1" parent="9KpWu18VyMETLlywFmQx-1837">
          <mxGeometry x="900" y="660" width="260" height="260" as="geometry" />
        </mxCell>
        <mxCell id="9KpWu18VyMETLlywFmQx-1583" value="78" style="rounded=0;whiteSpace=wrap;html=1;fontSize=32;" vertex="1" parent="9KpWu18VyMETLlywFmQx-1837">
          <mxGeometry width="780" height="780" as="geometry" />
        </mxCell>
        <mxCell id="9KpWu18VyMETLlywFmQx-1584" value="12" style="rounded=0;whiteSpace=wrap;html=1;fontSize=32;" vertex="1" parent="9KpWu18VyMETLlywFmQx-1837">
          <mxGeometry x="780" y="660" width="120" height="120" as="geometry" />
        </mxCell>
        <mxCell id="9KpWu18VyMETLlywFmQx-1585" value="66" style="rounded=0;whiteSpace=wrap;html=1;fontSize=32;" vertex="1" parent="9KpWu18VyMETLlywFmQx-1837">
          <mxGeometry x="780" width="660" height="660" as="geometry" />
        </mxCell>
        <mxCell id="9KpWu18VyMETLlywFmQx-1838" value="" style="group;flipV=1;" vertex="1" connectable="0" parent="1">
          <mxGeometry x="2870" y="19430" width="1440" height="650" as="geometry" />
        </mxCell>
        <mxCell id="9KpWu18VyMETLlywFmQx-1587" value="65" style="rounded=0;whiteSpace=wrap;html=1;fontSize=32;" vertex="1" parent="9KpWu18VyMETLlywFmQx-1838">
          <mxGeometry width="650" height="650" as="geometry" />
        </mxCell>
        <mxCell id="9KpWu18VyMETLlywFmQx-1588" value="15" style="rounded=0;whiteSpace=wrap;html=1;fillColor=#e1d5e7;strokeColor=#9673a6;fontSize=32;" vertex="1" parent="9KpWu18VyMETLlywFmQx-1838">
          <mxGeometry x="650" y="500" width="150" height="150" as="geometry" />
        </mxCell>
        <mxCell id="9KpWu18VyMETLlywFmQx-1589" value="8" style="rounded=0;whiteSpace=wrap;html=1;fillColor=#e1d5e7;strokeColor=#9673a6;fontSize=32;" vertex="1" parent="9KpWu18VyMETLlywFmQx-1838">
          <mxGeometry x="800" y="570" width="80" height="80" as="geometry" />
        </mxCell>
        <mxCell id="9KpWu18VyMETLlywFmQx-1590" value="9" style="rounded=0;whiteSpace=wrap;html=1;fillColor=#e1d5e7;strokeColor=#9673a6;fontSize=32;" vertex="1" parent="9KpWu18VyMETLlywFmQx-1838">
          <mxGeometry x="880" y="560" width="90" height="90" as="geometry" />
        </mxCell>
        <mxCell id="9KpWu18VyMETLlywFmQx-1591" value="7" style="rounded=0;whiteSpace=wrap;html=1;fillColor=#e1d5e7;strokeColor=#9673a6;fontSize=32;" vertex="1" parent="9KpWu18VyMETLlywFmQx-1838">
          <mxGeometry x="800" y="500" width="70" height="70" as="geometry" />
        </mxCell>
        <mxCell id="9KpWu18VyMETLlywFmQx-1592" value="1" style="rounded=0;whiteSpace=wrap;html=1;fillColor=#e1d5e7;strokeColor=#9673a6;fontSize=32;" vertex="1" parent="9KpWu18VyMETLlywFmQx-1838">
          <mxGeometry x="870" y="560" width="10" height="10" as="geometry" />
        </mxCell>
        <mxCell id="9KpWu18VyMETLlywFmQx-1593" value="23" style="rounded=0;whiteSpace=wrap;html=1;fillColor=#dae8fc;strokeColor=#6c8ebf;fontSize=32;" vertex="1" parent="9KpWu18VyMETLlywFmQx-1838">
          <mxGeometry x="970" y="420" width="230" height="230" as="geometry" />
        </mxCell>
        <mxCell id="9KpWu18VyMETLlywFmQx-1594" value="10" style="rounded=0;whiteSpace=wrap;html=1;fillColor=#e1d5e7;strokeColor=#9673a6;fontSize=32;" vertex="1" parent="9KpWu18VyMETLlywFmQx-1838">
          <mxGeometry x="870" y="460" width="100" height="100" as="geometry" />
        </mxCell>
        <mxCell id="9KpWu18VyMETLlywFmQx-1595" value="18" style="rounded=0;whiteSpace=wrap;html=1;fillColor=#e1d5e7;strokeColor=#9673a6;fontSize=32;" vertex="1" parent="9KpWu18VyMETLlywFmQx-1838">
          <mxGeometry x="650" y="320" width="180" height="180" as="geometry" />
        </mxCell>
        <mxCell id="9KpWu18VyMETLlywFmQx-1596" value="4" style="rounded=0;whiteSpace=wrap;html=1;fillColor=#e1d5e7;strokeColor=#9673a6;fontSize=32;" vertex="1" parent="9KpWu18VyMETLlywFmQx-1838">
          <mxGeometry x="830" y="460" width="40" height="40" as="geometry" />
        </mxCell>
        <mxCell id="9KpWu18VyMETLlywFmQx-1597" value="14" style="rounded=0;whiteSpace=wrap;html=1;fillColor=#e1d5e7;strokeColor=#9673a6;fontSize=32;" vertex="1" parent="9KpWu18VyMETLlywFmQx-1838">
          <mxGeometry x="830" y="320" width="140" height="140" as="geometry" />
        </mxCell>
        <mxCell id="9KpWu18VyMETLlywFmQx-1598" value="24" style="rounded=0;whiteSpace=wrap;html=1;fillColor=#dae8fc;strokeColor=#6c8ebf;fontSize=32;" vertex="1" parent="9KpWu18VyMETLlywFmQx-1838">
          <mxGeometry x="1200" y="410" width="240" height="240" as="geometry" />
        </mxCell>
        <mxCell id="9KpWu18VyMETLlywFmQx-1599" value="17" style="rounded=0;whiteSpace=wrap;html=1;fillColor=#dae8fc;strokeColor=#6c8ebf;fontSize=32;" vertex="1" parent="9KpWu18VyMETLlywFmQx-1838">
          <mxGeometry x="970" y="250" width="170" height="170" as="geometry" />
        </mxCell>
        <mxCell id="9KpWu18VyMETLlywFmQx-1600" value="6" style="rounded=0;whiteSpace=wrap;html=1;fillColor=#dae8fc;strokeColor=#6c8ebf;fontSize=32;" vertex="1" parent="9KpWu18VyMETLlywFmQx-1838">
          <mxGeometry x="1140" y="360" width="60" height="60" as="geometry" />
        </mxCell>
        <mxCell id="9KpWu18VyMETLlywFmQx-1601" value="5" style="rounded=0;whiteSpace=wrap;html=1;fillColor=#dae8fc;strokeColor=#6c8ebf;fontSize=32;" vertex="1" parent="9KpWu18VyMETLlywFmQx-1838">
          <mxGeometry x="1200" y="360" width="50" height="50" as="geometry" />
        </mxCell>
        <mxCell id="9KpWu18VyMETLlywFmQx-1602" value="19" style="rounded=0;whiteSpace=wrap;html=1;fillColor=#dae8fc;strokeColor=#6c8ebf;fontSize=32;" vertex="1" parent="9KpWu18VyMETLlywFmQx-1838">
          <mxGeometry x="1250" y="220" width="190" height="190" as="geometry" />
        </mxCell>
        <mxCell id="9KpWu18VyMETLlywFmQx-1603" value="11" style="rounded=0;whiteSpace=wrap;html=1;fillColor=#dae8fc;strokeColor=#6c8ebf;fontSize=32;" vertex="1" parent="9KpWu18VyMETLlywFmQx-1838">
          <mxGeometry x="1140" y="250" width="110" height="110" as="geometry" />
        </mxCell>
        <mxCell id="9KpWu18VyMETLlywFmQx-1604" value="32" style="rounded=0;whiteSpace=wrap;html=1;fillColor=#f8cecc;strokeColor=#b85450;fontSize=32;" vertex="1" parent="9KpWu18VyMETLlywFmQx-1838">
          <mxGeometry x="650" width="320" height="320" as="geometry" />
        </mxCell>
        <mxCell id="9KpWu18VyMETLlywFmQx-1605" value="25" style="rounded=0;whiteSpace=wrap;html=1;fillColor=#dae8fc;strokeColor=#6c8ebf;fontSize=32;" vertex="1" parent="9KpWu18VyMETLlywFmQx-1838">
          <mxGeometry x="970" width="250" height="250" as="geometry" />
        </mxCell>
        <mxCell id="9KpWu18VyMETLlywFmQx-1606" value="3" style="rounded=0;whiteSpace=wrap;html=1;fillColor=#dae8fc;strokeColor=#6c8ebf;fontSize=32;" vertex="1" parent="9KpWu18VyMETLlywFmQx-1838">
          <mxGeometry x="1220" y="220" width="30" height="30" as="geometry" />
        </mxCell>
        <mxCell id="9KpWu18VyMETLlywFmQx-1607" value="22" style="rounded=0;whiteSpace=wrap;html=1;fillColor=#dae8fc;strokeColor=#6c8ebf;fontSize=32;" vertex="1" parent="9KpWu18VyMETLlywFmQx-1838">
          <mxGeometry x="1220" width="220" height="220" as="geometry" />
        </mxCell>
        <mxCell id="9KpWu18VyMETLlywFmQx-1839" value="" style="group;flipV=1;" vertex="1" connectable="0" parent="1">
          <mxGeometry x="2930" y="20250" width="1440" height="1170" as="geometry" />
        </mxCell>
        <mxCell id="9KpWu18VyMETLlywFmQx-1609" value="53" style="rounded=0;whiteSpace=wrap;html=1;fontSize=32;" vertex="1" parent="9KpWu18VyMETLlywFmQx-1839">
          <mxGeometry y="640" width="530" height="530" as="geometry" />
        </mxCell>
        <mxCell id="9KpWu18VyMETLlywFmQx-1610" value="42" style="rounded=0;whiteSpace=wrap;html=1;fontSize=32;" vertex="1" parent="9KpWu18VyMETLlywFmQx-1839">
          <mxGeometry x="530" y="750" width="420" height="420" as="geometry" />
        </mxCell>
        <mxCell id="9KpWu18VyMETLlywFmQx-1611" value="49" style="rounded=0;whiteSpace=wrap;html=1;fontSize=32;" vertex="1" parent="9KpWu18VyMETLlywFmQx-1839">
          <mxGeometry x="950" y="680" width="490" height="490" as="geometry" />
        </mxCell>
        <mxCell id="9KpWu18VyMETLlywFmQx-1612" value="11" style="rounded=0;whiteSpace=wrap;html=1;fontSize=32;" vertex="1" parent="9KpWu18VyMETLlywFmQx-1839">
          <mxGeometry x="530" y="640" width="110" height="110" as="geometry" />
        </mxCell>
        <mxCell id="9KpWu18VyMETLlywFmQx-1613" value="31" style="rounded=0;whiteSpace=wrap;html=1;fontSize=32;" vertex="1" parent="9KpWu18VyMETLlywFmQx-1839">
          <mxGeometry x="640" y="440" width="310" height="310" as="geometry" />
        </mxCell>
        <mxCell id="9KpWu18VyMETLlywFmQx-1614" value="27" style="rounded=0;whiteSpace=wrap;html=1;fontSize=32;" vertex="1" parent="9KpWu18VyMETLlywFmQx-1839">
          <mxGeometry x="950" y="410" width="270" height="270" as="geometry" />
        </mxCell>
        <mxCell id="9KpWu18VyMETLlywFmQx-1615" value="22" style="rounded=0;whiteSpace=wrap;html=1;fontSize=32;" vertex="1" parent="9KpWu18VyMETLlywFmQx-1839">
          <mxGeometry x="1220" y="460" width="220" height="220" as="geometry" />
        </mxCell>
        <mxCell id="9KpWu18VyMETLlywFmQx-1616" value="5" style="rounded=0;whiteSpace=wrap;html=1;fontSize=32;" vertex="1" parent="9KpWu18VyMETLlywFmQx-1839">
          <mxGeometry x="1220" y="410" width="50" height="50" as="geometry" />
        </mxCell>
        <mxCell id="9KpWu18VyMETLlywFmQx-1617" value="17" style="rounded=0;whiteSpace=wrap;html=1;fontSize=32;" vertex="1" parent="9KpWu18VyMETLlywFmQx-1839">
          <mxGeometry x="1270" y="290" width="170" height="170" as="geometry" />
        </mxCell>
        <mxCell id="9KpWu18VyMETLlywFmQx-1618" value="64" style="rounded=0;whiteSpace=wrap;html=1;fontSize=32;" vertex="1" parent="9KpWu18VyMETLlywFmQx-1839">
          <mxGeometry width="640" height="640" as="geometry" />
        </mxCell>
        <mxCell id="9KpWu18VyMETLlywFmQx-1619" value="18" style="rounded=0;whiteSpace=wrap;html=1;fontSize=32;" vertex="1" parent="9KpWu18VyMETLlywFmQx-1839">
          <mxGeometry x="640" y="260" width="180" height="180" as="geometry" />
        </mxCell>
        <mxCell id="9KpWu18VyMETLlywFmQx-1620" value="10" style="rounded=0;whiteSpace=wrap;html=1;fontSize=32;" vertex="1" parent="9KpWu18VyMETLlywFmQx-1839">
          <mxGeometry x="820" y="340" width="100" height="100" as="geometry" />
        </mxCell>
        <mxCell id="9KpWu18VyMETLlywFmQx-1621" value="3" style="rounded=0;whiteSpace=wrap;html=1;fontSize=32;" vertex="1" parent="9KpWu18VyMETLlywFmQx-1839">
          <mxGeometry x="920" y="410" width="30" height="30" as="geometry" />
        </mxCell>
        <mxCell id="9KpWu18VyMETLlywFmQx-1622" value="7" style="rounded=0;whiteSpace=wrap;html=1;fontSize=32;" vertex="1" parent="9KpWu18VyMETLlywFmQx-1839">
          <mxGeometry x="920" y="340" width="70" height="70" as="geometry" />
        </mxCell>
        <mxCell id="9KpWu18VyMETLlywFmQx-1623" value="16" style="rounded=0;whiteSpace=wrap;html=1;fontSize=32;" vertex="1" parent="9KpWu18VyMETLlywFmQx-1839">
          <mxGeometry x="990" y="250" width="160" height="160" as="geometry" />
        </mxCell>
        <mxCell id="9KpWu18VyMETLlywFmQx-1624" value="12" style="rounded=0;whiteSpace=wrap;html=1;fontSize=32;" vertex="1" parent="9KpWu18VyMETLlywFmQx-1839">
          <mxGeometry x="1150" y="290" width="120" height="120" as="geometry" />
        </mxCell>
        <mxCell id="9KpWu18VyMETLlywFmQx-1625" value="8" style="rounded=0;whiteSpace=wrap;html=1;fontSize=32;" vertex="1" parent="9KpWu18VyMETLlywFmQx-1839">
          <mxGeometry x="820" y="260" width="80" height="80" as="geometry" />
        </mxCell>
        <mxCell id="9KpWu18VyMETLlywFmQx-1626" value="9" style="rounded=0;whiteSpace=wrap;html=1;fontSize=32;" vertex="1" parent="9KpWu18VyMETLlywFmQx-1839">
          <mxGeometry x="900" y="250" width="90" height="90" as="geometry" />
        </mxCell>
        <mxCell id="9KpWu18VyMETLlywFmQx-1627" value="26" style="rounded=0;whiteSpace=wrap;html=1;fontSize=32;" vertex="1" parent="9KpWu18VyMETLlywFmQx-1839">
          <mxGeometry x="640" width="260" height="260" as="geometry" />
        </mxCell>
        <mxCell id="9KpWu18VyMETLlywFmQx-1628" value="29" style="rounded=0;whiteSpace=wrap;html=1;fontSize=32;" vertex="1" parent="9KpWu18VyMETLlywFmQx-1839">
          <mxGeometry x="1150" width="290" height="290" as="geometry" />
        </mxCell>
        <mxCell id="9KpWu18VyMETLlywFmQx-1629" value="25" style="rounded=0;whiteSpace=wrap;html=1;fontSize=32;" vertex="1" parent="9KpWu18VyMETLlywFmQx-1839">
          <mxGeometry x="900" width="250" height="250" as="geometry" />
        </mxCell>
        <mxCell id="9KpWu18VyMETLlywFmQx-1840" value="" style="group;flipV=1;" vertex="1" connectable="0" parent="1">
          <mxGeometry x="2920" y="21610" width="1440" height="1430" as="geometry" />
        </mxCell>
        <mxCell id="9KpWu18VyMETLlywFmQx-1631" value="49" style="rounded=0;whiteSpace=wrap;html=1;fontSize=32;" vertex="1" parent="9KpWu18VyMETLlywFmQx-1840">
          <mxGeometry y="940" width="490" height="490" as="geometry" />
        </mxCell>
        <mxCell id="9KpWu18VyMETLlywFmQx-1632" value="40" style="rounded=0;whiteSpace=wrap;html=1;fontSize=32;" vertex="1" parent="9KpWu18VyMETLlywFmQx-1840">
          <mxGeometry x="490" y="1030" width="400" height="400" as="geometry" />
        </mxCell>
        <mxCell id="9KpWu18VyMETLlywFmQx-1633" value="55" style="rounded=0;whiteSpace=wrap;html=1;fontSize=32;" vertex="1" parent="9KpWu18VyMETLlywFmQx-1840">
          <mxGeometry x="890" y="880" width="550" height="550" as="geometry" />
        </mxCell>
        <mxCell id="9KpWu18VyMETLlywFmQx-1634" value="9" style="rounded=0;whiteSpace=wrap;html=1;fontSize=32;" vertex="1" parent="9KpWu18VyMETLlywFmQx-1840">
          <mxGeometry x="490" y="940" width="90" height="90" as="geometry" />
        </mxCell>
        <mxCell id="9KpWu18VyMETLlywFmQx-1635" value="31" style="rounded=0;whiteSpace=wrap;html=1;fontSize=32;" vertex="1" parent="9KpWu18VyMETLlywFmQx-1840">
          <mxGeometry x="580" y="720" width="310" height="310" as="geometry" />
        </mxCell>
        <mxCell id="9KpWu18VyMETLlywFmQx-1636" value="26" style="rounded=0;whiteSpace=wrap;html=1;fontSize=32;" vertex="1" parent="9KpWu18VyMETLlywFmQx-1840">
          <mxGeometry x="890" y="620" width="260" height="260" as="geometry" />
        </mxCell>
        <mxCell id="9KpWu18VyMETLlywFmQx-1637" value="29" style="rounded=0;whiteSpace=wrap;html=1;fontSize=32;" vertex="1" parent="9KpWu18VyMETLlywFmQx-1840">
          <mxGeometry x="1150" y="590" width="290" height="290" as="geometry" />
        </mxCell>
        <mxCell id="9KpWu18VyMETLlywFmQx-1638" value="38" style="rounded=0;whiteSpace=wrap;html=1;fontSize=32;" vertex="1" parent="9KpWu18VyMETLlywFmQx-1840">
          <mxGeometry y="560" width="380" height="380" as="geometry" />
        </mxCell>
        <mxCell id="9KpWu18VyMETLlywFmQx-1639" value="20" style="rounded=0;whiteSpace=wrap;html=1;fontSize=32;" vertex="1" parent="9KpWu18VyMETLlywFmQx-1840">
          <mxGeometry x="380" y="740" width="200" height="200" as="geometry" />
        </mxCell>
        <mxCell id="9KpWu18VyMETLlywFmQx-1640" value="18" style="rounded=0;whiteSpace=wrap;html=1;fontSize=32;" vertex="1" parent="9KpWu18VyMETLlywFmQx-1840">
          <mxGeometry x="380" y="560" width="180" height="180" as="geometry" />
        </mxCell>
        <mxCell id="9KpWu18VyMETLlywFmQx-1641" value="2" style="rounded=0;whiteSpace=wrap;html=1;fontSize=32;" vertex="1" parent="9KpWu18VyMETLlywFmQx-1840">
          <mxGeometry x="560" y="720" width="20" height="20" as="geometry" />
        </mxCell>
        <mxCell id="9KpWu18VyMETLlywFmQx-1642" value="33" style="rounded=0;whiteSpace=wrap;html=1;fontSize=32;" vertex="1" parent="9KpWu18VyMETLlywFmQx-1840">
          <mxGeometry x="560" y="390" width="330" height="330" as="geometry" />
        </mxCell>
        <mxCell id="9KpWu18VyMETLlywFmQx-1643" value="23" style="rounded=0;whiteSpace=wrap;html=1;fontSize=32;" vertex="1" parent="9KpWu18VyMETLlywFmQx-1840">
          <mxGeometry x="890" y="390" width="230" height="230" as="geometry" />
        </mxCell>
        <mxCell id="9KpWu18VyMETLlywFmQx-1644" value="3" style="rounded=0;whiteSpace=wrap;html=1;fontSize=32;" vertex="1" parent="9KpWu18VyMETLlywFmQx-1840">
          <mxGeometry x="1120" y="590" width="30" height="30" as="geometry" />
        </mxCell>
        <mxCell id="9KpWu18VyMETLlywFmQx-1645" value="32" style="rounded=0;whiteSpace=wrap;html=1;fontSize=32;" vertex="1" parent="9KpWu18VyMETLlywFmQx-1840">
          <mxGeometry x="1120" y="270" width="320" height="320" as="geometry" />
        </mxCell>
        <mxCell id="9KpWu18VyMETLlywFmQx-1646" value="56" style="rounded=0;whiteSpace=wrap;html=1;fontSize=32;" vertex="1" parent="9KpWu18VyMETLlywFmQx-1840">
          <mxGeometry width="560" height="560" as="geometry" />
        </mxCell>
        <mxCell id="9KpWu18VyMETLlywFmQx-1647" value="39" style="rounded=0;whiteSpace=wrap;html=1;fontSize=32;" vertex="1" parent="9KpWu18VyMETLlywFmQx-1840">
          <mxGeometry x="560" width="390" height="390" as="geometry" />
        </mxCell>
        <mxCell id="9KpWu18VyMETLlywFmQx-1648" value="17" style="rounded=0;whiteSpace=wrap;html=1;fontSize=32;" vertex="1" parent="9KpWu18VyMETLlywFmQx-1840">
          <mxGeometry x="950" y="220" width="170" height="170" as="geometry" />
        </mxCell>
        <mxCell id="9KpWu18VyMETLlywFmQx-1649" value="5" style="rounded=0;whiteSpace=wrap;html=1;fontSize=32;" vertex="1" parent="9KpWu18VyMETLlywFmQx-1840">
          <mxGeometry x="1120" y="220" width="50" height="50" as="geometry" />
        </mxCell>
        <mxCell id="9KpWu18VyMETLlywFmQx-1650" value="27" style="rounded=0;whiteSpace=wrap;html=1;fontSize=32;" vertex="1" parent="9KpWu18VyMETLlywFmQx-1840">
          <mxGeometry x="1170" width="270" height="270" as="geometry" />
        </mxCell>
        <mxCell id="9KpWu18VyMETLlywFmQx-1651" value="22" style="rounded=0;whiteSpace=wrap;html=1;fontSize=32;" vertex="1" parent="9KpWu18VyMETLlywFmQx-1840">
          <mxGeometry x="950" width="220" height="220" as="geometry" />
        </mxCell>
        <mxCell id="9KpWu18VyMETLlywFmQx-1841" value="" style="group;flipV=1;" vertex="1" connectable="0" parent="1">
          <mxGeometry x="2910" y="23250" width="1440" height="790" as="geometry" />
        </mxCell>
        <mxCell id="9KpWu18VyMETLlywFmQx-1653" value="79" style="rounded=0;whiteSpace=wrap;html=1;fontSize=32;" vertex="1" parent="9KpWu18VyMETLlywFmQx-1841">
          <mxGeometry width="790" height="790" as="geometry" />
        </mxCell>
        <mxCell id="9KpWu18VyMETLlywFmQx-1654" value="22" style="rounded=0;whiteSpace=wrap;html=1;fillColor=#f8cecc;strokeColor=#b85450;fontSize=32;" vertex="1" parent="9KpWu18VyMETLlywFmQx-1841">
          <mxGeometry x="790" y="570" width="220" height="220" as="geometry" />
        </mxCell>
        <mxCell id="9KpWu18VyMETLlywFmQx-1655" value="19" style="rounded=0;whiteSpace=wrap;html=1;fillColor=#f8cecc;strokeColor=#b85450;fontSize=32;" vertex="1" parent="9KpWu18VyMETLlywFmQx-1841">
          <mxGeometry x="1010" y="600" width="190" height="190" as="geometry" />
        </mxCell>
        <mxCell id="9KpWu18VyMETLlywFmQx-1656" value="24" style="rounded=0;whiteSpace=wrap;html=1;fillColor=#f8cecc;strokeColor=#b85450;fontSize=32;" vertex="1" parent="9KpWu18VyMETLlywFmQx-1841">
          <mxGeometry x="1200" y="550" width="240" height="240" as="geometry" />
        </mxCell>
        <mxCell id="9KpWu18VyMETLlywFmQx-1657" value="3" style="rounded=0;whiteSpace=wrap;html=1;fillColor=#f8cecc;strokeColor=#b85450;fontSize=32;" vertex="1" parent="9KpWu18VyMETLlywFmQx-1841">
          <mxGeometry x="1010" y="570" width="30" height="30" as="geometry" />
        </mxCell>
        <mxCell id="9KpWu18VyMETLlywFmQx-1658" value="11" style="rounded=0;whiteSpace=wrap;html=1;fillColor=#f8cecc;strokeColor=#b85450;fontSize=32;" vertex="1" parent="9KpWu18VyMETLlywFmQx-1841">
          <mxGeometry x="1040" y="490" width="110" height="110" as="geometry" />
        </mxCell>
        <mxCell id="9KpWu18VyMETLlywFmQx-1659" value="5" style="rounded=0;whiteSpace=wrap;html=1;fillColor=#f8cecc;strokeColor=#b85450;fontSize=32;" vertex="1" parent="9KpWu18VyMETLlywFmQx-1841">
          <mxGeometry x="1150" y="550" width="50" height="50" as="geometry" />
        </mxCell>
        <mxCell id="9KpWu18VyMETLlywFmQx-1660" value="25" style="rounded=0;whiteSpace=wrap;html=1;fillColor=#f8cecc;strokeColor=#b85450;fontSize=32;" vertex="1" parent="9KpWu18VyMETLlywFmQx-1841">
          <mxGeometry x="790" y="320" width="250" height="250" as="geometry" />
        </mxCell>
        <mxCell id="9KpWu18VyMETLlywFmQx-1661" value="6" style="rounded=0;whiteSpace=wrap;html=1;fillColor=#f8cecc;strokeColor=#b85450;fontSize=32;" vertex="1" parent="9KpWu18VyMETLlywFmQx-1841">
          <mxGeometry x="1150" y="490" width="60" height="60" as="geometry" />
        </mxCell>
        <mxCell id="9KpWu18VyMETLlywFmQx-1662" value="23" style="rounded=0;whiteSpace=wrap;html=1;fillColor=#f8cecc;strokeColor=#b85450;fontSize=32;" vertex="1" parent="9KpWu18VyMETLlywFmQx-1841">
          <mxGeometry x="1210" y="320" width="230" height="230" as="geometry" />
        </mxCell>
        <mxCell id="9KpWu18VyMETLlywFmQx-1663" value="17" style="rounded=0;whiteSpace=wrap;html=1;fillColor=#f8cecc;strokeColor=#b85450;fontSize=32;" vertex="1" parent="9KpWu18VyMETLlywFmQx-1841">
          <mxGeometry x="1040" y="320" width="170" height="170" as="geometry" />
        </mxCell>
        <mxCell id="9KpWu18VyMETLlywFmQx-1664" value="32" style="rounded=0;whiteSpace=wrap;html=1;fillColor=#dae8fc;strokeColor=#6c8ebf;fontSize=32;" vertex="1" parent="9KpWu18VyMETLlywFmQx-1841">
          <mxGeometry x="790" width="320" height="320" as="geometry" />
        </mxCell>
        <mxCell id="9KpWu18VyMETLlywFmQx-1665" value="14" style="rounded=0;whiteSpace=wrap;html=1;fillColor=#e1d5e7;strokeColor=#9673a6;fontSize=32;" vertex="1" parent="9KpWu18VyMETLlywFmQx-1841">
          <mxGeometry x="1110" y="180" width="140" height="140" as="geometry" />
        </mxCell>
        <mxCell id="9KpWu18VyMETLlywFmQx-1666" value="10" style="rounded=0;whiteSpace=wrap;html=1;fillColor=#e1d5e7;strokeColor=#9673a6;fontSize=32;" vertex="1" parent="9KpWu18VyMETLlywFmQx-1841">
          <mxGeometry x="1250" y="220" width="100" height="100" as="geometry" />
        </mxCell>
        <mxCell id="9KpWu18VyMETLlywFmQx-1667" value="9" style="rounded=0;whiteSpace=wrap;html=1;fillColor=#e1d5e7;strokeColor=#9673a6;fontSize=32;" vertex="1" parent="9KpWu18VyMETLlywFmQx-1841">
          <mxGeometry x="1350" y="230" width="90" height="90" as="geometry" />
        </mxCell>
        <mxCell id="9KpWu18VyMETLlywFmQx-1668" value="1" style="rounded=0;whiteSpace=wrap;html=1;fillColor=#e1d5e7;strokeColor=#9673a6;fontSize=32;" vertex="1" parent="9KpWu18VyMETLlywFmQx-1841">
          <mxGeometry x="1350" y="220" width="10" height="10" as="geometry" />
        </mxCell>
        <mxCell id="9KpWu18VyMETLlywFmQx-1669" value="8" style="rounded=0;whiteSpace=wrap;html=1;fillColor=#e1d5e7;strokeColor=#9673a6;fontSize=32;" vertex="1" parent="9KpWu18VyMETLlywFmQx-1841">
          <mxGeometry x="1360" y="150" width="80" height="80" as="geometry" />
        </mxCell>
        <mxCell id="9KpWu18VyMETLlywFmQx-1670" value="4" style="rounded=0;whiteSpace=wrap;html=1;fillColor=#e1d5e7;strokeColor=#9673a6;fontSize=32;" vertex="1" parent="9KpWu18VyMETLlywFmQx-1841">
          <mxGeometry x="1250" y="180" width="40" height="40" as="geometry" />
        </mxCell>
        <mxCell id="9KpWu18VyMETLlywFmQx-1671" value="7" style="rounded=0;whiteSpace=wrap;html=1;fillColor=#e1d5e7;strokeColor=#9673a6;fontSize=32;" vertex="1" parent="9KpWu18VyMETLlywFmQx-1841">
          <mxGeometry x="1290" y="150" width="70" height="70" as="geometry" />
        </mxCell>
        <mxCell id="9KpWu18VyMETLlywFmQx-1672" value="18" style="rounded=0;whiteSpace=wrap;html=1;fillColor=#e1d5e7;strokeColor=#9673a6;fontSize=32;" vertex="1" parent="9KpWu18VyMETLlywFmQx-1841">
          <mxGeometry x="1110" width="180" height="180" as="geometry" />
        </mxCell>
        <mxCell id="9KpWu18VyMETLlywFmQx-1673" value="15" style="rounded=0;whiteSpace=wrap;html=1;fillColor=#e1d5e7;strokeColor=#9673a6;fontSize=32;" vertex="1" parent="9KpWu18VyMETLlywFmQx-1841">
          <mxGeometry x="1290" width="150" height="150" as="geometry" />
        </mxCell>
        <mxCell id="9KpWu18VyMETLlywFmQx-1842" value="" style="group;flipV=1;" vertex="1" connectable="0" parent="1">
          <mxGeometry x="2910" y="24240" width="1440" height="1100" as="geometry" />
        </mxCell>
        <mxCell id="9KpWu18VyMETLlywFmQx-1675" value="48" style="rounded=0;whiteSpace=wrap;html=1;fontSize=32;" vertex="1" parent="9KpWu18VyMETLlywFmQx-1842">
          <mxGeometry y="620" width="480" height="480" as="geometry" />
        </mxCell>
        <mxCell id="9KpWu18VyMETLlywFmQx-1676" value="34" style="rounded=0;whiteSpace=wrap;html=1;fontSize=32;" vertex="1" parent="9KpWu18VyMETLlywFmQx-1842">
          <mxGeometry x="480" y="760" width="340" height="340" as="geometry" />
        </mxCell>
        <mxCell id="9KpWu18VyMETLlywFmQx-1677" value="15" style="rounded=0;whiteSpace=wrap;html=1;fontSize=32;" vertex="1" parent="9KpWu18VyMETLlywFmQx-1842">
          <mxGeometry x="820" y="950" width="150" height="150" as="geometry" />
        </mxCell>
        <mxCell id="9KpWu18VyMETLlywFmQx-1678" value="17" style="rounded=0;whiteSpace=wrap;html=1;fontSize=32;" vertex="1" parent="9KpWu18VyMETLlywFmQx-1842">
          <mxGeometry x="970" y="930" width="170" height="170" as="geometry" />
        </mxCell>
        <mxCell id="9KpWu18VyMETLlywFmQx-1679" value="13" style="rounded=0;whiteSpace=wrap;html=1;fontSize=32;" vertex="1" parent="9KpWu18VyMETLlywFmQx-1842">
          <mxGeometry x="820" y="820" width="130" height="130" as="geometry" />
        </mxCell>
        <mxCell id="9KpWu18VyMETLlywFmQx-1680" value="2" style="rounded=0;whiteSpace=wrap;html=1;fontSize=32;" vertex="1" parent="9KpWu18VyMETLlywFmQx-1842">
          <mxGeometry x="950" y="930" width="20" height="20" as="geometry" />
        </mxCell>
        <mxCell id="9KpWu18VyMETLlywFmQx-1681" value="30" style="rounded=0;whiteSpace=wrap;html=1;fontSize=32;" vertex="1" parent="9KpWu18VyMETLlywFmQx-1842">
          <mxGeometry x="1140" y="800" width="300" height="300" as="geometry" />
        </mxCell>
        <mxCell id="9KpWu18VyMETLlywFmQx-1682" value="11" style="rounded=0;whiteSpace=wrap;html=1;fontSize=32;" vertex="1" parent="9KpWu18VyMETLlywFmQx-1842">
          <mxGeometry x="950" y="820" width="110" height="110" as="geometry" />
        </mxCell>
        <mxCell id="9KpWu18VyMETLlywFmQx-1683" value="8" style="rounded=0;whiteSpace=wrap;html=1;fontSize=32;" vertex="1" parent="9KpWu18VyMETLlywFmQx-1842">
          <mxGeometry x="1060" y="850" width="80" height="80" as="geometry" />
        </mxCell>
        <mxCell id="9KpWu18VyMETLlywFmQx-1684" value="3" style="rounded=0;whiteSpace=wrap;html=1;fontSize=32;" vertex="1" parent="9KpWu18VyMETLlywFmQx-1842">
          <mxGeometry x="1060" y="820" width="30" height="30" as="geometry" />
        </mxCell>
        <mxCell id="9KpWu18VyMETLlywFmQx-1685" value="5" style="rounded=0;whiteSpace=wrap;html=1;fontSize=32;" vertex="1" parent="9KpWu18VyMETLlywFmQx-1842">
          <mxGeometry x="1090" y="800" width="50" height="50" as="geometry" />
        </mxCell>
        <mxCell id="9KpWu18VyMETLlywFmQx-1686" value="27" style="rounded=0;whiteSpace=wrap;html=1;fontSize=32;" vertex="1" parent="9KpWu18VyMETLlywFmQx-1842">
          <mxGeometry x="820" y="550" width="270" height="270" as="geometry" />
        </mxCell>
        <mxCell id="9KpWu18VyMETLlywFmQx-1687" value="14" style="rounded=0;whiteSpace=wrap;html=1;fontSize=32;" vertex="1" parent="9KpWu18VyMETLlywFmQx-1842">
          <mxGeometry x="480" y="620" width="140" height="140" as="geometry" />
        </mxCell>
        <mxCell id="9KpWu18VyMETLlywFmQx-1688" value="20" style="rounded=0;whiteSpace=wrap;html=1;fontSize=32;" vertex="1" parent="9KpWu18VyMETLlywFmQx-1842">
          <mxGeometry x="620" y="560" width="200" height="200" as="geometry" />
        </mxCell>
        <mxCell id="9KpWu18VyMETLlywFmQx-1689" value="35" style="rounded=0;whiteSpace=wrap;html=1;fontSize=32;" vertex="1" parent="9KpWu18VyMETLlywFmQx-1842">
          <mxGeometry x="1090" y="450" width="350" height="350" as="geometry" />
        </mxCell>
        <mxCell id="9KpWu18VyMETLlywFmQx-1690" value="62" style="rounded=0;whiteSpace=wrap;html=1;fontSize=32;" vertex="1" parent="9KpWu18VyMETLlywFmQx-1842">
          <mxGeometry width="620" height="620" as="geometry" />
        </mxCell>
        <mxCell id="9KpWu18VyMETLlywFmQx-1691" value="19" style="rounded=0;whiteSpace=wrap;html=1;fontSize=32;" vertex="1" parent="9KpWu18VyMETLlywFmQx-1842">
          <mxGeometry x="620" y="370" width="190" height="190" as="geometry" />
        </mxCell>
        <mxCell id="9KpWu18VyMETLlywFmQx-1692" value="1" style="rounded=0;whiteSpace=wrap;html=1;fontSize=32;" vertex="1" parent="9KpWu18VyMETLlywFmQx-1842">
          <mxGeometry x="810" y="550" width="10" height="10" as="geometry" />
        </mxCell>
        <mxCell id="9KpWu18VyMETLlywFmQx-1693" value="18" style="rounded=0;whiteSpace=wrap;html=1;fontSize=32;" vertex="1" parent="9KpWu18VyMETLlywFmQx-1842">
          <mxGeometry x="810" y="370" width="180" height="180" as="geometry" />
        </mxCell>
        <mxCell id="9KpWu18VyMETLlywFmQx-1694" value="10" style="rounded=0;whiteSpace=wrap;html=1;fontSize=32;" vertex="1" parent="9KpWu18VyMETLlywFmQx-1842">
          <mxGeometry x="990" y="450" width="100" height="100" as="geometry" />
        </mxCell>
        <mxCell id="9KpWu18VyMETLlywFmQx-1695" value="45" style="rounded=0;whiteSpace=wrap;html=1;fontSize=32;" vertex="1" parent="9KpWu18VyMETLlywFmQx-1842">
          <mxGeometry x="990" width="450" height="450" as="geometry" />
        </mxCell>
        <mxCell id="9KpWu18VyMETLlywFmQx-1696" value="37" style="rounded=0;whiteSpace=wrap;html=1;fontSize=32;" vertex="1" parent="9KpWu18VyMETLlywFmQx-1842">
          <mxGeometry x="620" width="370" height="370" as="geometry" />
        </mxCell>
        <mxCell id="9KpWu18VyMETLlywFmQx-1843" value="" style="group;flipV=1;" vertex="1" connectable="0" parent="1">
          <mxGeometry x="2930" y="25540" width="1440" height="1320" as="geometry" />
        </mxCell>
        <mxCell id="9KpWu18VyMETLlywFmQx-1698" value="25" style="rounded=0;whiteSpace=wrap;html=1;fontSize=32;" vertex="1" parent="9KpWu18VyMETLlywFmQx-1843">
          <mxGeometry y="1070" width="250" height="250" as="geometry" />
        </mxCell>
        <mxCell id="9KpWu18VyMETLlywFmQx-1699" value="12" style="rounded=0;whiteSpace=wrap;html=1;fontSize=32;" vertex="1" parent="9KpWu18VyMETLlywFmQx-1843">
          <mxGeometry x="250" y="1200" width="120" height="120" as="geometry" />
        </mxCell>
        <mxCell id="9KpWu18VyMETLlywFmQx-1700" value="11" style="rounded=0;whiteSpace=wrap;html=1;fontSize=32;" vertex="1" parent="9KpWu18VyMETLlywFmQx-1843">
          <mxGeometry x="370" y="1210" width="110" height="110" as="geometry" />
        </mxCell>
        <mxCell id="9KpWu18VyMETLlywFmQx-1701" value="27" style="rounded=0;whiteSpace=wrap;html=1;fontSize=32;" vertex="1" parent="9KpWu18VyMETLlywFmQx-1843">
          <mxGeometry x="480" y="1050" width="270" height="270" as="geometry" />
        </mxCell>
        <mxCell id="9KpWu18VyMETLlywFmQx-1702" value="1" style="rounded=0;whiteSpace=wrap;html=1;fontSize=32;" vertex="1" parent="9KpWu18VyMETLlywFmQx-1843">
          <mxGeometry x="370" y="1200" width="10" height="10" as="geometry" />
        </mxCell>
        <mxCell id="9KpWu18VyMETLlywFmQx-1703" value="10" style="rounded=0;whiteSpace=wrap;html=1;fontSize=32;" vertex="1" parent="9KpWu18VyMETLlywFmQx-1843">
          <mxGeometry x="380" y="1110" width="100" height="100" as="geometry" />
        </mxCell>
        <mxCell id="9KpWu18VyMETLlywFmQx-1704" value="13" style="rounded=0;whiteSpace=wrap;html=1;fontSize=32;" vertex="1" parent="9KpWu18VyMETLlywFmQx-1843">
          <mxGeometry x="250" y="1070" width="130" height="130" as="geometry" />
        </mxCell>
        <mxCell id="9KpWu18VyMETLlywFmQx-1705" value="4" style="rounded=0;whiteSpace=wrap;html=1;fontSize=32;" vertex="1" parent="9KpWu18VyMETLlywFmQx-1843">
          <mxGeometry x="380" y="1070" width="40" height="40" as="geometry" />
        </mxCell>
        <mxCell id="9KpWu18VyMETLlywFmQx-1706" value="6" style="rounded=0;whiteSpace=wrap;html=1;fontSize=32;" vertex="1" parent="9KpWu18VyMETLlywFmQx-1843">
          <mxGeometry x="420" y="1050" width="60" height="60" as="geometry" />
        </mxCell>
        <mxCell id="9KpWu18VyMETLlywFmQx-1707" value="40" style="rounded=0;whiteSpace=wrap;html=1;fontSize=32;" vertex="1" parent="9KpWu18VyMETLlywFmQx-1843">
          <mxGeometry y="670" width="400" height="400" as="geometry" />
        </mxCell>
        <mxCell id="9KpWu18VyMETLlywFmQx-1708" value="2" style="rounded=0;whiteSpace=wrap;html=1;fontSize=32;" vertex="1" parent="9KpWu18VyMETLlywFmQx-1843">
          <mxGeometry x="400" y="1050" width="20" height="20" as="geometry" />
        </mxCell>
        <mxCell id="9KpWu18VyMETLlywFmQx-1709" value="24" style="rounded=0;whiteSpace=wrap;html=1;fontSize=32;" vertex="1" parent="9KpWu18VyMETLlywFmQx-1843">
          <mxGeometry x="750" y="1080" width="240" height="240" as="geometry" />
        </mxCell>
        <mxCell id="9KpWu18VyMETLlywFmQx-1710" value="45" style="rounded=0;whiteSpace=wrap;html=1;fontSize=32;" vertex="1" parent="9KpWu18VyMETLlywFmQx-1843">
          <mxGeometry x="990" y="870" width="450" height="450" as="geometry" />
        </mxCell>
        <mxCell id="9KpWu18VyMETLlywFmQx-1711" value="3" style="rounded=0;whiteSpace=wrap;html=1;fontSize=32;" vertex="1" parent="9KpWu18VyMETLlywFmQx-1843">
          <mxGeometry x="750" y="1050" width="30" height="30" as="geometry" />
        </mxCell>
        <mxCell id="9KpWu18VyMETLlywFmQx-1712" value="21" style="rounded=0;whiteSpace=wrap;html=1;fontSize=32;" vertex="1" parent="9KpWu18VyMETLlywFmQx-1843">
          <mxGeometry x="780" y="870" width="210" height="210" as="geometry" />
        </mxCell>
        <mxCell id="9KpWu18VyMETLlywFmQx-1713" value="38" style="rounded=0;whiteSpace=wrap;html=1;fontSize=32;" vertex="1" parent="9KpWu18VyMETLlywFmQx-1843">
          <mxGeometry x="400" y="670" width="380" height="380" as="geometry" />
        </mxCell>
        <mxCell id="9KpWu18VyMETLlywFmQx-1714" value="20" style="rounded=0;whiteSpace=wrap;html=1;fontSize=32;" vertex="1" parent="9KpWu18VyMETLlywFmQx-1843">
          <mxGeometry x="780" y="670" width="200" height="200" as="geometry" />
        </mxCell>
        <mxCell id="9KpWu18VyMETLlywFmQx-1715" value="46" style="rounded=0;whiteSpace=wrap;html=1;fontSize=32;" vertex="1" parent="9KpWu18VyMETLlywFmQx-1843">
          <mxGeometry x="980" y="410" width="460" height="460" as="geometry" />
        </mxCell>
        <mxCell id="9KpWu18VyMETLlywFmQx-1716" value="67" style="rounded=0;whiteSpace=wrap;html=1;fontSize=32;" vertex="1" parent="9KpWu18VyMETLlywFmQx-1843">
          <mxGeometry width="670" height="670" as="geometry" />
        </mxCell>
        <mxCell id="9KpWu18VyMETLlywFmQx-1717" value="31" style="rounded=0;whiteSpace=wrap;html=1;fontSize=32;" vertex="1" parent="9KpWu18VyMETLlywFmQx-1843">
          <mxGeometry x="670" y="360" width="310" height="310" as="geometry" />
        </mxCell>
        <mxCell id="9KpWu18VyMETLlywFmQx-1718" value="5" style="rounded=0;whiteSpace=wrap;html=1;fontSize=32;" vertex="1" parent="9KpWu18VyMETLlywFmQx-1843">
          <mxGeometry x="980" y="360" width="50" height="50" as="geometry" />
        </mxCell>
        <mxCell id="9KpWu18VyMETLlywFmQx-1719" value="41" style="rounded=0;whiteSpace=wrap;html=1;fontSize=32;" vertex="1" parent="9KpWu18VyMETLlywFmQx-1843">
          <mxGeometry x="1030" width="410" height="410" as="geometry" />
        </mxCell>
        <mxCell id="9KpWu18VyMETLlywFmQx-1720" value="36" style="rounded=0;whiteSpace=wrap;html=1;fontSize=32;" vertex="1" parent="9KpWu18VyMETLlywFmQx-1843">
          <mxGeometry x="670" width="360" height="360" as="geometry" />
        </mxCell>
        <mxCell id="9KpWu18VyMETLlywFmQx-1844" value="" style="group;flipV=1;" vertex="1" connectable="0" parent="1">
          <mxGeometry x="2960" y="27070" width="1440" height="1350" as="geometry" />
        </mxCell>
        <mxCell id="9KpWu18VyMETLlywFmQx-1722" value="38" style="rounded=0;whiteSpace=wrap;html=1;fontSize=32;" vertex="1" parent="9KpWu18VyMETLlywFmQx-1844">
          <mxGeometry y="970" width="380" height="380" as="geometry" />
        </mxCell>
        <mxCell id="9KpWu18VyMETLlywFmQx-1723" value="19" style="rounded=0;whiteSpace=wrap;html=1;fontSize=32;" vertex="1" parent="9KpWu18VyMETLlywFmQx-1844">
          <mxGeometry x="380" y="1160" width="190" height="190" as="geometry" />
        </mxCell>
        <mxCell id="9KpWu18VyMETLlywFmQx-1724" value="33" style="rounded=0;whiteSpace=wrap;html=1;fontSize=32;" vertex="1" parent="9KpWu18VyMETLlywFmQx-1844">
          <mxGeometry x="570" y="1020" width="330" height="330" as="geometry" />
        </mxCell>
        <mxCell id="9KpWu18VyMETLlywFmQx-1725" value="9" style="rounded=0;whiteSpace=wrap;html=1;fontSize=32;" vertex="1" parent="9KpWu18VyMETLlywFmQx-1844">
          <mxGeometry x="380" y="1070" width="90" height="90" as="geometry" />
        </mxCell>
        <mxCell id="9KpWu18VyMETLlywFmQx-1726" value="10" style="rounded=0;whiteSpace=wrap;html=1;fontSize=32;" vertex="1" parent="9KpWu18VyMETLlywFmQx-1844">
          <mxGeometry x="470" y="1060" width="100" height="100" as="geometry" />
        </mxCell>
        <mxCell id="9KpWu18VyMETLlywFmQx-1727" value="8" style="rounded=0;whiteSpace=wrap;html=1;fontSize=32;" vertex="1" parent="9KpWu18VyMETLlywFmQx-1844">
          <mxGeometry x="380" y="990" width="80" height="80" as="geometry" />
        </mxCell>
        <mxCell id="9KpWu18VyMETLlywFmQx-1728" value="1" style="rounded=0;whiteSpace=wrap;html=1;fontSize=32;" vertex="1" parent="9KpWu18VyMETLlywFmQx-1844">
          <mxGeometry x="460" y="1060" width="10" height="10" as="geometry" />
        </mxCell>
        <mxCell id="9KpWu18VyMETLlywFmQx-1729" value="7" style="rounded=0;whiteSpace=wrap;html=1;fontSize=32;" vertex="1" parent="9KpWu18VyMETLlywFmQx-1844">
          <mxGeometry x="460" y="990" width="70" height="70" as="geometry" />
        </mxCell>
        <mxCell id="9KpWu18VyMETLlywFmQx-1730" value="4" style="rounded=0;whiteSpace=wrap;html=1;fontSize=32;" vertex="1" parent="9KpWu18VyMETLlywFmQx-1844">
          <mxGeometry x="530" y="1020" width="40" height="40" as="geometry" />
        </mxCell>
        <mxCell id="9KpWu18VyMETLlywFmQx-1731" value="54" style="rounded=0;whiteSpace=wrap;html=1;fontSize=32;" vertex="1" parent="9KpWu18VyMETLlywFmQx-1844">
          <mxGeometry x="900" y="810" width="540" height="540" as="geometry" />
        </mxCell>
        <mxCell id="9KpWu18VyMETLlywFmQx-1732" value="16" style="rounded=0;whiteSpace=wrap;html=1;fontSize=32;" vertex="1" parent="9KpWu18VyMETLlywFmQx-1844">
          <mxGeometry x="530" y="860" width="160" height="160" as="geometry" />
        </mxCell>
        <mxCell id="9KpWu18VyMETLlywFmQx-1733" value="2" style="rounded=0;whiteSpace=wrap;html=1;fontSize=32;" vertex="1" parent="9KpWu18VyMETLlywFmQx-1844">
          <mxGeometry x="380" y="970" width="20" height="20" as="geometry" />
        </mxCell>
        <mxCell id="9KpWu18VyMETLlywFmQx-1734" value="13" style="rounded=0;whiteSpace=wrap;html=1;fontSize=32;" vertex="1" parent="9KpWu18VyMETLlywFmQx-1844">
          <mxGeometry x="400" y="860" width="130" height="130" as="geometry" />
        </mxCell>
        <mxCell id="9KpWu18VyMETLlywFmQx-1735" value="21" style="rounded=0;whiteSpace=wrap;html=1;fontSize=32;" vertex="1" parent="9KpWu18VyMETLlywFmQx-1844">
          <mxGeometry x="690" y="810" width="210" height="210" as="geometry" />
        </mxCell>
        <mxCell id="9KpWu18VyMETLlywFmQx-1736" value="40" style="rounded=0;whiteSpace=wrap;html=1;fontSize=32;" vertex="1" parent="9KpWu18VyMETLlywFmQx-1844">
          <mxGeometry y="570" width="400" height="400" as="geometry" />
        </mxCell>
        <mxCell id="9KpWu18VyMETLlywFmQx-1737" value="29" style="rounded=0;whiteSpace=wrap;html=1;fontSize=32;" vertex="1" parent="9KpWu18VyMETLlywFmQx-1844">
          <mxGeometry x="400" y="570" width="290" height="290" as="geometry" />
        </mxCell>
        <mxCell id="9KpWu18VyMETLlywFmQx-1738" value="36" style="rounded=0;whiteSpace=wrap;html=1;fontSize=32;" vertex="1" parent="9KpWu18VyMETLlywFmQx-1844">
          <mxGeometry x="690" y="450" width="360" height="360" as="geometry" />
        </mxCell>
        <mxCell id="9KpWu18VyMETLlywFmQx-1739" value="39" style="rounded=0;whiteSpace=wrap;html=1;fontSize=32;" vertex="1" parent="9KpWu18VyMETLlywFmQx-1844">
          <mxGeometry x="1050" y="420" width="390" height="390" as="geometry" />
        </mxCell>
        <mxCell id="9KpWu18VyMETLlywFmQx-1740" value="57" style="rounded=0;whiteSpace=wrap;html=1;fontSize=32;" vertex="1" parent="9KpWu18VyMETLlywFmQx-1844">
          <mxGeometry width="570" height="570" as="geometry" />
        </mxCell>
        <mxCell id="9KpWu18VyMETLlywFmQx-1741" value="12" style="rounded=0;whiteSpace=wrap;html=1;fontSize=32;" vertex="1" parent="9KpWu18VyMETLlywFmQx-1844">
          <mxGeometry x="570" y="450" width="120" height="120" as="geometry" />
        </mxCell>
        <mxCell id="9KpWu18VyMETLlywFmQx-1742" value="45" style="rounded=0;whiteSpace=wrap;html=1;fontSize=32;" vertex="1" parent="9KpWu18VyMETLlywFmQx-1844">
          <mxGeometry x="570" width="450" height="450" as="geometry" />
        </mxCell>
        <mxCell id="9KpWu18VyMETLlywFmQx-1743" value="3" style="rounded=0;whiteSpace=wrap;html=1;fontSize=32;" vertex="1" parent="9KpWu18VyMETLlywFmQx-1844">
          <mxGeometry x="1020" y="420" width="30" height="30" as="geometry" />
        </mxCell>
        <mxCell id="9KpWu18VyMETLlywFmQx-1744" value="42" style="rounded=0;whiteSpace=wrap;html=1;fontSize=32;" vertex="1" parent="9KpWu18VyMETLlywFmQx-1844">
          <mxGeometry x="1020" width="420" height="420" as="geometry" />
        </mxCell>
        <mxCell id="9KpWu18VyMETLlywFmQx-1845" value="" style="group;flipV=1;" vertex="1" connectable="0" parent="1">
          <mxGeometry x="2940" y="28570" width="1440" height="1170" as="geometry" />
        </mxCell>
        <mxCell id="9KpWu18VyMETLlywFmQx-1746" value="57" style="rounded=0;whiteSpace=wrap;html=1;fontSize=32;" vertex="1" parent="9KpWu18VyMETLlywFmQx-1845">
          <mxGeometry y="600" width="570" height="570" as="geometry" />
        </mxCell>
        <mxCell id="9KpWu18VyMETLlywFmQx-1747" value="30" style="rounded=0;whiteSpace=wrap;html=1;fontSize=32;" vertex="1" parent="9KpWu18VyMETLlywFmQx-1845">
          <mxGeometry x="570" y="870" width="300" height="300" as="geometry" />
        </mxCell>
        <mxCell id="9KpWu18VyMETLlywFmQx-1748" value="23" style="rounded=0;whiteSpace=wrap;html=1;fontSize=32;" vertex="1" parent="9KpWu18VyMETLlywFmQx-1845">
          <mxGeometry x="870" y="940" width="230" height="230" as="geometry" />
        </mxCell>
        <mxCell id="9KpWu18VyMETLlywFmQx-1749" value="14" style="rounded=0;whiteSpace=wrap;html=1;fontSize=32;" vertex="1" parent="9KpWu18VyMETLlywFmQx-1845">
          <mxGeometry x="1100" y="1030" width="140" height="140" as="geometry" />
        </mxCell>
        <mxCell id="9KpWu18VyMETLlywFmQx-1750" value="20" style="rounded=0;whiteSpace=wrap;html=1;fontSize=32;" vertex="1" parent="9KpWu18VyMETLlywFmQx-1845">
          <mxGeometry x="1240" y="970" width="200" height="200" as="geometry" />
        </mxCell>
        <mxCell id="9KpWu18VyMETLlywFmQx-1751" value="9" style="rounded=0;whiteSpace=wrap;html=1;fontSize=32;" vertex="1" parent="9KpWu18VyMETLlywFmQx-1845">
          <mxGeometry x="1100" y="940" width="90" height="90" as="geometry" />
        </mxCell>
        <mxCell id="9KpWu18VyMETLlywFmQx-1752" value="5" style="rounded=0;whiteSpace=wrap;html=1;fontSize=32;" vertex="1" parent="9KpWu18VyMETLlywFmQx-1845">
          <mxGeometry x="1190" y="980" width="50" height="50" as="geometry" />
        </mxCell>
        <mxCell id="9KpWu18VyMETLlywFmQx-1753" value="4" style="rounded=0;whiteSpace=wrap;html=1;fontSize=32;" vertex="1" parent="9KpWu18VyMETLlywFmQx-1845">
          <mxGeometry x="1190" y="940" width="40" height="40" as="geometry" />
        </mxCell>
        <mxCell id="9KpWu18VyMETLlywFmQx-1754" value="1" style="rounded=0;whiteSpace=wrap;html=1;fontSize=32;" vertex="1" parent="9KpWu18VyMETLlywFmQx-1845">
          <mxGeometry x="1230" y="970" width="10" height="10" as="geometry" />
        </mxCell>
        <mxCell id="9KpWu18VyMETLlywFmQx-1755" value="3" style="rounded=0;whiteSpace=wrap;html=1;fontSize=32;" vertex="1" parent="9KpWu18VyMETLlywFmQx-1845">
          <mxGeometry x="1230" y="940" width="30" height="30" as="geometry" />
        </mxCell>
        <mxCell id="9KpWu18VyMETLlywFmQx-1756" value="18" style="rounded=0;whiteSpace=wrap;html=1;fontSize=32;" vertex="1" parent="9KpWu18VyMETLlywFmQx-1845">
          <mxGeometry x="1260" y="790" width="180" height="180" as="geometry" />
        </mxCell>
        <mxCell id="9KpWu18VyMETLlywFmQx-1757" value="7" style="rounded=0;whiteSpace=wrap;html=1;fontSize=32;" vertex="1" parent="9KpWu18VyMETLlywFmQx-1845">
          <mxGeometry x="870" y="870" width="70" height="70" as="geometry" />
        </mxCell>
        <mxCell id="9KpWu18VyMETLlywFmQx-1758" value="17" style="rounded=0;whiteSpace=wrap;html=1;fontSize=32;" vertex="1" parent="9KpWu18VyMETLlywFmQx-1845">
          <mxGeometry x="940" y="770" width="170" height="170" as="geometry" />
        </mxCell>
        <mxCell id="9KpWu18VyMETLlywFmQx-1759" value="15" style="rounded=0;whiteSpace=wrap;html=1;fontSize=32;" vertex="1" parent="9KpWu18VyMETLlywFmQx-1845">
          <mxGeometry x="1110" y="790" width="150" height="150" as="geometry" />
        </mxCell>
        <mxCell id="9KpWu18VyMETLlywFmQx-1760" value="2" style="rounded=0;whiteSpace=wrap;html=1;fontSize=32;" vertex="1" parent="9KpWu18VyMETLlywFmQx-1845">
          <mxGeometry x="1110" y="770" width="20" height="20" as="geometry" />
        </mxCell>
        <mxCell id="9KpWu18VyMETLlywFmQx-1761" value="31" style="rounded=0;whiteSpace=wrap;html=1;fontSize=32;" vertex="1" parent="9KpWu18VyMETLlywFmQx-1845">
          <mxGeometry x="1130" y="480" width="310" height="310" as="geometry" />
        </mxCell>
        <mxCell id="9KpWu18VyMETLlywFmQx-1762" value="27" style="rounded=0;whiteSpace=wrap;html=1;fontSize=32;" vertex="1" parent="9KpWu18VyMETLlywFmQx-1845">
          <mxGeometry x="570" y="600" width="270" height="270" as="geometry" />
        </mxCell>
        <mxCell id="9KpWu18VyMETLlywFmQx-1763" value="10" style="rounded=0;whiteSpace=wrap;html=1;fontSize=32;" vertex="1" parent="9KpWu18VyMETLlywFmQx-1845">
          <mxGeometry x="840" y="770" width="100" height="100" as="geometry" />
        </mxCell>
        <mxCell id="9KpWu18VyMETLlywFmQx-1764" value="29" style="rounded=0;whiteSpace=wrap;html=1;fontSize=32;" vertex="1" parent="9KpWu18VyMETLlywFmQx-1845">
          <mxGeometry x="840" y="480" width="290" height="290" as="geometry" />
        </mxCell>
        <mxCell id="9KpWu18VyMETLlywFmQx-1765" value="60" style="rounded=0;whiteSpace=wrap;html=1;fontSize=32;" vertex="1" parent="9KpWu18VyMETLlywFmQx-1845">
          <mxGeometry width="600" height="600" as="geometry" />
        </mxCell>
        <mxCell id="9KpWu18VyMETLlywFmQx-1766" value="24" style="rounded=0;whiteSpace=wrap;html=1;fontSize=32;" vertex="1" parent="9KpWu18VyMETLlywFmQx-1845">
          <mxGeometry x="600" y="360" width="240" height="240" as="geometry" />
        </mxCell>
        <mxCell id="9KpWu18VyMETLlywFmQx-1767" value="12" style="rounded=0;whiteSpace=wrap;html=1;fontSize=32;" vertex="1" parent="9KpWu18VyMETLlywFmQx-1845">
          <mxGeometry x="840" y="360" width="120" height="120" as="geometry" />
        </mxCell>
        <mxCell id="9KpWu18VyMETLlywFmQx-1768" value="48" style="rounded=0;whiteSpace=wrap;html=1;fontSize=32;" vertex="1" parent="9KpWu18VyMETLlywFmQx-1845">
          <mxGeometry x="960" width="480" height="480" as="geometry" />
        </mxCell>
        <mxCell id="9KpWu18VyMETLlywFmQx-1769" value="36" style="rounded=0;whiteSpace=wrap;html=1;fontSize=32;" vertex="1" parent="9KpWu18VyMETLlywFmQx-1845">
          <mxGeometry x="600" width="360" height="360" as="geometry" />
        </mxCell>
        <mxCell id="9KpWu18VyMETLlywFmQx-1846" value="" style="group;flipV=1;" vertex="1" connectable="0" parent="1">
          <mxGeometry x="2960" y="29970" width="1440" height="1350" as="geometry" />
        </mxCell>
        <mxCell id="9KpWu18VyMETLlywFmQx-1771" value="60" style="rounded=0;whiteSpace=wrap;html=1;fontSize=32;" vertex="1" parent="9KpWu18VyMETLlywFmQx-1846">
          <mxGeometry y="750" width="600" height="600" as="geometry" />
        </mxCell>
        <mxCell id="9KpWu18VyMETLlywFmQx-1772" value="45" style="rounded=0;whiteSpace=wrap;html=1;fontSize=32;" vertex="1" parent="9KpWu18VyMETLlywFmQx-1846">
          <mxGeometry x="600" y="900" width="450" height="450" as="geometry" />
        </mxCell>
        <mxCell id="9KpWu18VyMETLlywFmQx-1773" value="39" style="rounded=0;whiteSpace=wrap;html=1;fontSize=32;" vertex="1" parent="9KpWu18VyMETLlywFmQx-1846">
          <mxGeometry x="1050" y="960" width="390" height="390" as="geometry" />
        </mxCell>
        <mxCell id="9KpWu18VyMETLlywFmQx-1774" value="6" style="rounded=0;whiteSpace=wrap;html=1;fontSize=32;" vertex="1" parent="9KpWu18VyMETLlywFmQx-1846">
          <mxGeometry x="1050" y="900" width="60" height="60" as="geometry" />
        </mxCell>
        <mxCell id="9KpWu18VyMETLlywFmQx-1775" value="33" style="rounded=0;whiteSpace=wrap;html=1;fontSize=32;" vertex="1" parent="9KpWu18VyMETLlywFmQx-1846">
          <mxGeometry x="1110" y="630" width="330" height="330" as="geometry" />
        </mxCell>
        <mxCell id="9KpWu18VyMETLlywFmQx-1776" value="15" style="rounded=0;whiteSpace=wrap;html=1;fontSize=32;" vertex="1" parent="9KpWu18VyMETLlywFmQx-1846">
          <mxGeometry x="600" y="750" width="150" height="150" as="geometry" />
        </mxCell>
        <mxCell id="9KpWu18VyMETLlywFmQx-1777" value="36" style="rounded=0;whiteSpace=wrap;html=1;fontSize=32;" vertex="1" parent="9KpWu18VyMETLlywFmQx-1846">
          <mxGeometry x="750" y="540" width="360" height="360" as="geometry" />
        </mxCell>
        <mxCell id="9KpWu18VyMETLlywFmQx-1778" value="9" style="rounded=0;whiteSpace=wrap;html=1;fontSize=32;" vertex="1" parent="9KpWu18VyMETLlywFmQx-1846">
          <mxGeometry x="1110" y="540" width="90" height="90" as="geometry" />
        </mxCell>
        <mxCell id="9KpWu18VyMETLlywFmQx-1779" value="24" style="rounded=0;whiteSpace=wrap;html=1;fontSize=32;" vertex="1" parent="9KpWu18VyMETLlywFmQx-1846">
          <mxGeometry x="1200" y="390" width="240" height="240" as="geometry" />
        </mxCell>
        <mxCell id="9KpWu18VyMETLlywFmQx-1780" value="75" style="rounded=0;whiteSpace=wrap;html=1;fontSize=32;" vertex="1" parent="9KpWu18VyMETLlywFmQx-1846">
          <mxGeometry width="750" height="750" as="geometry" />
        </mxCell>
        <mxCell id="9KpWu18VyMETLlywFmQx-1781" value="22" style="rounded=0;whiteSpace=wrap;html=1;fontSize=32;" vertex="1" parent="9KpWu18VyMETLlywFmQx-1846">
          <mxGeometry x="750" y="320" width="220" height="220" as="geometry" />
        </mxCell>
        <mxCell id="9KpWu18VyMETLlywFmQx-1782" value="12" style="rounded=0;whiteSpace=wrap;html=1;fontSize=32;" vertex="1" parent="9KpWu18VyMETLlywFmQx-1846">
          <mxGeometry x="970" y="420" width="120" height="120" as="geometry" />
        </mxCell>
        <mxCell id="9KpWu18VyMETLlywFmQx-1783" value="11" style="rounded=0;whiteSpace=wrap;html=1;fontSize=32;" vertex="1" parent="9KpWu18VyMETLlywFmQx-1846">
          <mxGeometry x="1090" y="430" width="110" height="110" as="geometry" />
        </mxCell>
        <mxCell id="9KpWu18VyMETLlywFmQx-1784" value="3" style="rounded=0;whiteSpace=wrap;html=1;fontSize=32;" vertex="1" parent="9KpWu18VyMETLlywFmQx-1846">
          <mxGeometry x="1090" y="400" width="30" height="30" as="geometry" />
        </mxCell>
        <mxCell id="9KpWu18VyMETLlywFmQx-1785" value="8" style="rounded=0;whiteSpace=wrap;html=1;fontSize=32;" vertex="1" parent="9KpWu18VyMETLlywFmQx-1846">
          <mxGeometry x="1120" y="350" width="80" height="80" as="geometry" />
        </mxCell>
        <mxCell id="9KpWu18VyMETLlywFmQx-1786" value="10" style="rounded=0;whiteSpace=wrap;html=1;fontSize=32;" vertex="1" parent="9KpWu18VyMETLlywFmQx-1846">
          <mxGeometry x="970" y="320" width="100" height="100" as="geometry" />
        </mxCell>
        <mxCell id="9KpWu18VyMETLlywFmQx-1787" value="2" style="rounded=0;whiteSpace=wrap;html=1;fontSize=32;" vertex="1" parent="9KpWu18VyMETLlywFmQx-1846">
          <mxGeometry x="1070" y="400" width="20" height="20" as="geometry" />
        </mxCell>
        <mxCell id="9KpWu18VyMETLlywFmQx-1788" value="5" style="rounded=0;whiteSpace=wrap;html=1;fontSize=32;" vertex="1" parent="9KpWu18VyMETLlywFmQx-1846">
          <mxGeometry x="1070" y="350" width="50" height="50" as="geometry" />
        </mxCell>
        <mxCell id="9KpWu18VyMETLlywFmQx-1789" value="4" style="rounded=0;whiteSpace=wrap;html=1;fontSize=32;" vertex="1" parent="9KpWu18VyMETLlywFmQx-1846">
          <mxGeometry x="1200" y="350" width="40" height="40" as="geometry" />
        </mxCell>
        <mxCell id="9KpWu18VyMETLlywFmQx-1790" value="20" style="rounded=0;whiteSpace=wrap;html=1;fontSize=32;" vertex="1" parent="9KpWu18VyMETLlywFmQx-1846">
          <mxGeometry x="1240" y="190" width="200" height="200" as="geometry" />
        </mxCell>
        <mxCell id="9KpWu18VyMETLlywFmQx-1791" value="17" style="rounded=0;whiteSpace=wrap;html=1;fontSize=32;" vertex="1" parent="9KpWu18VyMETLlywFmQx-1846">
          <mxGeometry x="1070" y="180" width="170" height="170" as="geometry" />
        </mxCell>
        <mxCell id="9KpWu18VyMETLlywFmQx-1792" value="1" style="rounded=0;whiteSpace=wrap;html=1;fontSize=32;" vertex="1" parent="9KpWu18VyMETLlywFmQx-1846">
          <mxGeometry x="1240" y="180" width="10" height="10" as="geometry" />
        </mxCell>
        <mxCell id="9KpWu18VyMETLlywFmQx-1793" value="19" style="rounded=0;whiteSpace=wrap;html=1;fontSize=32;" vertex="1" parent="9KpWu18VyMETLlywFmQx-1846">
          <mxGeometry x="1250" width="190" height="190" as="geometry" />
        </mxCell>
        <mxCell id="9KpWu18VyMETLlywFmQx-1794" value="32" style="rounded=0;whiteSpace=wrap;html=1;fontSize=32;" vertex="1" parent="9KpWu18VyMETLlywFmQx-1846">
          <mxGeometry x="750" width="320" height="320" as="geometry" />
        </mxCell>
        <mxCell id="9KpWu18VyMETLlywFmQx-1795" value="18" style="rounded=0;whiteSpace=wrap;html=1;fontSize=32;" vertex="1" parent="9KpWu18VyMETLlywFmQx-1846">
          <mxGeometry x="1070" width="180" height="180" as="geometry" />
        </mxCell>
        <mxCell id="9KpWu18VyMETLlywFmQx-1847" value="" style="group;flipV=1;" vertex="1" connectable="0" parent="1">
          <mxGeometry x="2960" y="31470" width="1440" height="1130" as="geometry" />
        </mxCell>
        <mxCell id="9KpWu18VyMETLlywFmQx-1797" value="53" style="rounded=0;whiteSpace=wrap;html=1;fontSize=32;" vertex="1" parent="9KpWu18VyMETLlywFmQx-1847">
          <mxGeometry y="600" width="530" height="530" as="geometry" />
        </mxCell>
        <mxCell id="9KpWu18VyMETLlywFmQx-1798" value="32" style="rounded=0;whiteSpace=wrap;html=1;fontSize=32;" vertex="1" parent="9KpWu18VyMETLlywFmQx-1847">
          <mxGeometry x="530" y="810" width="320" height="320" as="geometry" />
        </mxCell>
        <mxCell id="9KpWu18VyMETLlywFmQx-1799" value="28" style="rounded=0;whiteSpace=wrap;html=1;fontSize=32;" vertex="1" parent="9KpWu18VyMETLlywFmQx-1847">
          <mxGeometry x="850" y="850" width="280" height="280" as="geometry" />
        </mxCell>
        <mxCell id="9KpWu18VyMETLlywFmQx-1800" value="31" style="rounded=0;whiteSpace=wrap;html=1;fontSize=32;" vertex="1" parent="9KpWu18VyMETLlywFmQx-1847">
          <mxGeometry x="1130" y="820" width="310" height="310" as="geometry" />
        </mxCell>
        <mxCell id="9KpWu18VyMETLlywFmQx-1801" value="15" style="rounded=0;whiteSpace=wrap;html=1;fontSize=32;" vertex="1" parent="9KpWu18VyMETLlywFmQx-1847">
          <mxGeometry x="850" y="700" width="150" height="150" as="geometry" />
        </mxCell>
        <mxCell id="9KpWu18VyMETLlywFmQx-1802" value="9" style="rounded=0;whiteSpace=wrap;html=1;fontSize=32;" vertex="1" parent="9KpWu18VyMETLlywFmQx-1847">
          <mxGeometry x="1000" y="760" width="90" height="90" as="geometry" />
        </mxCell>
        <mxCell id="9KpWu18VyMETLlywFmQx-1803" value="4" style="rounded=0;whiteSpace=wrap;html=1;fontSize=32;" vertex="1" parent="9KpWu18VyMETLlywFmQx-1847">
          <mxGeometry x="1090" y="810" width="40" height="40" as="geometry" />
        </mxCell>
        <mxCell id="9KpWu18VyMETLlywFmQx-1804" value="1" style="rounded=0;whiteSpace=wrap;html=1;fontSize=32;" vertex="1" parent="9KpWu18VyMETLlywFmQx-1847">
          <mxGeometry x="1130" y="810" width="10" height="10" as="geometry" />
        </mxCell>
        <mxCell id="9KpWu18VyMETLlywFmQx-1805" value="14" style="rounded=0;whiteSpace=wrap;html=1;fontSize=32;" vertex="1" parent="9KpWu18VyMETLlywFmQx-1847">
          <mxGeometry x="1140" y="680" width="140" height="140" as="geometry" />
        </mxCell>
        <mxCell id="9KpWu18VyMETLlywFmQx-1806" value="5" style="rounded=0;whiteSpace=wrap;html=1;fontSize=32;" vertex="1" parent="9KpWu18VyMETLlywFmQx-1847">
          <mxGeometry x="1090" y="760" width="50" height="50" as="geometry" />
        </mxCell>
        <mxCell id="9KpWu18VyMETLlywFmQx-1807" value="6" style="rounded=0;whiteSpace=wrap;html=1;fontSize=32;" vertex="1" parent="9KpWu18VyMETLlywFmQx-1847">
          <mxGeometry x="1000" y="700" width="60" height="60" as="geometry" />
        </mxCell>
        <mxCell id="9KpWu18VyMETLlywFmQx-1808" value="8" style="rounded=0;whiteSpace=wrap;html=1;fontSize=32;" vertex="1" parent="9KpWu18VyMETLlywFmQx-1847">
          <mxGeometry x="1060" y="680" width="80" height="80" as="geometry" />
        </mxCell>
        <mxCell id="9KpWu18VyMETLlywFmQx-1809" value="16" style="rounded=0;whiteSpace=wrap;html=1;fontSize=32;" vertex="1" parent="9KpWu18VyMETLlywFmQx-1847">
          <mxGeometry x="1280" y="660" width="160" height="160" as="geometry" />
        </mxCell>
        <mxCell id="9KpWu18VyMETLlywFmQx-1810" value="21" style="rounded=0;whiteSpace=wrap;html=1;fontSize=32;" vertex="1" parent="9KpWu18VyMETLlywFmQx-1847">
          <mxGeometry x="530" y="600" width="210" height="210" as="geometry" />
        </mxCell>
        <mxCell id="9KpWu18VyMETLlywFmQx-1811" value="11" style="rounded=0;whiteSpace=wrap;html=1;fontSize=32;" vertex="1" parent="9KpWu18VyMETLlywFmQx-1847">
          <mxGeometry x="740" y="700" width="110" height="110" as="geometry" />
        </mxCell>
        <mxCell id="9KpWu18VyMETLlywFmQx-1812" value="10" style="rounded=0;whiteSpace=wrap;html=1;fontSize=32;" vertex="1" parent="9KpWu18VyMETLlywFmQx-1847">
          <mxGeometry x="740" y="600" width="100" height="100" as="geometry" />
        </mxCell>
        <mxCell id="9KpWu18VyMETLlywFmQx-1813" value="22" style="rounded=0;whiteSpace=wrap;html=1;fontSize=32;" vertex="1" parent="9KpWu18VyMETLlywFmQx-1847">
          <mxGeometry x="840" y="480" width="220" height="220" as="geometry" />
        </mxCell>
        <mxCell id="9KpWu18VyMETLlywFmQx-1814" value="20" style="rounded=0;whiteSpace=wrap;html=1;fontSize=32;" vertex="1" parent="9KpWu18VyMETLlywFmQx-1847">
          <mxGeometry x="1060" y="480" width="200" height="200" as="geometry" />
        </mxCell>
        <mxCell id="9KpWu18VyMETLlywFmQx-1815" value="2" style="rounded=0;whiteSpace=wrap;html=1;fontSize=32;" vertex="1" parent="9KpWu18VyMETLlywFmQx-1847">
          <mxGeometry x="1260" y="660" width="20" height="20" as="geometry" />
        </mxCell>
        <mxCell id="9KpWu18VyMETLlywFmQx-1816" value="18" style="rounded=0;whiteSpace=wrap;html=1;fontSize=32;" vertex="1" parent="9KpWu18VyMETLlywFmQx-1847">
          <mxGeometry x="1260" y="480" width="180" height="180" as="geometry" />
        </mxCell>
        <mxCell id="9KpWu18VyMETLlywFmQx-1817" value="60" style="rounded=0;whiteSpace=wrap;html=1;fontSize=32;" vertex="1" parent="9KpWu18VyMETLlywFmQx-1847">
          <mxGeometry width="600" height="600" as="geometry" />
        </mxCell>
        <mxCell id="9KpWu18VyMETLlywFmQx-1818" value="24" style="rounded=0;whiteSpace=wrap;html=1;fontSize=32;" vertex="1" parent="9KpWu18VyMETLlywFmQx-1847">
          <mxGeometry x="600" y="360" width="240" height="240" as="geometry" />
        </mxCell>
        <mxCell id="9KpWu18VyMETLlywFmQx-1819" value="12" style="rounded=0;whiteSpace=wrap;html=1;fontSize=32;" vertex="1" parent="9KpWu18VyMETLlywFmQx-1847">
          <mxGeometry x="840" y="360" width="120" height="120" as="geometry" />
        </mxCell>
        <mxCell id="9KpWu18VyMETLlywFmQx-1820" value="48" style="rounded=0;whiteSpace=wrap;html=1;fontSize=32;" vertex="1" parent="9KpWu18VyMETLlywFmQx-1847">
          <mxGeometry x="960" width="480" height="480" as="geometry" />
        </mxCell>
        <mxCell id="9KpWu18VyMETLlywFmQx-1821" value="36" style="rounded=0;whiteSpace=wrap;html=1;fontSize=32;" vertex="1" parent="9KpWu18VyMETLlywFmQx-1847">
          <mxGeometry x="600" width="360" height="360" as="geometry" />
        </mxCell>
      </root>
    </mxGraphModel>
  </diagram>
</mxfile>
